/* XPM */
static char * button_ok_xpm[] = {
"22 22 98 2",
"  	c None",
". 	c #636363",
"+ 	c #151515",
"@ 	c #080808",
"# 	c #909090",
"$ 	c #9F9F9F",
"% 	c #8E8E8E",
"& 	c #404040",
"* 	c #3D3D3D",
"= 	c #4F4F4F",
"- 	c #020202",
"; 	c #8F8F8F",
"> 	c #939393",
", 	c #4B4B4B",
"' 	c #474747",
") 	c #A1A1A1",
"! 	c #9C9C9C",
"~ 	c #323232",
"{ 	c #3C3C3C",
"] 	c #8A8A8A",
"^ 	c #7F7F7F",
"/ 	c #5F5F5F",
"( 	c #787878",
"_ 	c #BFBFBF",
": 	c #6F6F6F",
"< 	c #1F1F1F",
"[ 	c #5D5D5D",
"} 	c #000000",
"| 	c #C8C8C8",
"1 	c #6D6D6D",
"2 	c #606060",
"3 	c #A9A9A9",
"4 	c #B0B0B0",
"5 	c #727272",
"6 	c #777777",
"7 	c #676767",
"8 	c #818181",
"9 	c #555555",
"0 	c #2F2F2F",
"a 	c #484848",
"b 	c #767676",
"c 	c #B1B1B1",
"d 	c #444444",
"e 	c #121212",
"f 	c #AFAFAF",
"g 	c #C4C4C4",
"h 	c #1A1A1A",
"i 	c #646464",
"j 	c #757575",
"k 	c #7A7A7A",
"l 	c #919191",
"m 	c #303030",
"n 	c #ACACAC",
"o 	c #F5F5F5",
"p 	c #DADADA",
"q 	c #BCBCBC",
"r 	c #D1D1D1",
"s 	c #202020",
"t 	c #7B7B7B",
"u 	c #C2C2C2",
"v 	c #9D9D9D",
"w 	c #181818",
"x 	c #363636",
"y 	c #A6A6A6",
"z 	c #ECECEC",
"A 	c #EEEEEE",
"B 	c #D3D3D3",
"C 	c #565656",
"D 	c #848484",
"E 	c #C3C3C3",
"F 	c #B6B6B6",
"G 	c #191919",
"H 	c #A2A2A2",
"I 	c #E7E7E7",
"J 	c #F0F0F0",
"K 	c #D9D9D9",
"L 	c #2E2E2E",
"M 	c #2D2D2D",
"N 	c #B7B7B7",
"O 	c #BBBBBB",
"P 	c #414141",
"Q 	c #0D0D0D",
"R 	c #989898",
"S 	c #EAEAEA",
"T 	c #F1F1F1",
"U 	c #DEDEDE",
"V 	c #B8B8B8",
"W 	c #464646",
"X 	c #040404",
"Y 	c #A3A3A3",
"Z 	c #E9E9E9",
"` 	c #C5C5C5",
" .	c #4C4C4C",
"..	c #E4E4E4",
"+.	c #747474",
"@.	c #878787",
"#.	c #666666",
"$.	c #696969",
"                                            ",
"                                            ",
"                                            ",
"                                            ",
"                                  . + @ #   ",
"                            $ % & * = - ;   ",
"                          > , ' ) ! ~ {     ",
"      ]                 ^ / ( _ : < =       ",
"    [ } < |           1 2 3 4 5 + 6         ",
"  7 8 9 } 0 |       a b c ; d e             ",
"  f _ g h } i     j k g l < m n             ",
"  o p q r } s   $ t u v w x y               ",
"  z A B u C } = D E F { G H                 ",
"    I J K 4 L M N O P Q R                   ",
"      S T U c $ V W X Y                     ",
"        Z A 4 `  .X $                       ",
"          J ..+.} @.                        ",
"            O #.$.                          ",
"                                            ",
"                                            ",
"                                            ",
"                                            "};
