/* XPM */
static char * button_cancel_xpm[] = {
"22 22 71 1",
" 	c None",
".	c #191919",
"+	c #4E4E4E",
"@	c #6C6C6C",
"#	c #FFFFFF",
"$	c #8D8D8D",
"%	c #5E5E5E",
"&	c #717171",
"*	c #797979",
"=	c #676767",
"-	c #212121",
";	c #333333",
">	c #F8F8F8",
",	c #BDBDBD",
"'	c #3E3E3E",
")	c #222222",
"!	c #929292",
"~	c #7F7F7F",
"{	c #949494",
"]	c #6E6E6E",
"^	c #383838",
"/	c #585858",
"(	c #ECECEC",
"_	c #EFEFEF",
":	c #7B7B7B",
"<	c #525252",
"[	c #ADADAD",
"}	c #1E1E1E",
"|	c #6A6A6A",
"1	c #FCFCFC",
"2	c #9F9F9F",
"3	c #505050",
"4	c #C3C3C3",
"5	c #747474",
"6	c #777777",
"7	c #D6D6D6",
"8	c #E5E5E5",
"9	c #C4C4C4",
"0	c #999999",
"a	c #252525",
"b	c #303030",
"c	c #7E7E7E",
"d	c #A7A7A7",
"e	c #BBBBBB",
"f	c #D4D4D4",
"g	c #424242",
"h	c #373737",
"i	c #ACACAC",
"j	c #B4B4B4",
"k	c #BABABA",
"l	c #646464",
"m	c #CBCBCB",
"n	c #3C3C3C",
"o	c #555555",
"p	c #A9A9A9",
"q	c #838383",
"r	c #FDFDFD",
"s	c #EAEAEA",
"t	c #272727",
"u	c #B9B9B9",
"v	c #BEBEBE",
"w	c #AAAAAA",
"x	c #1F1F1F",
"y	c #484848",
"z	c #FAFAFA",
"A	c #E0E0E0",
"B	c #282828",
"C	c #F5F5F5",
"D	c #979797",
"E	c #C9C9C9",
"F	c #8E8E8E",
"                      ",
"                      ",
"                      ",
"                      ",
"                      ",
"      .+        @.    ",
"     #$..%    &*=-;   ",
"     >#,'.)! ~{]^/    ",
"       (_:..<[&}|     ",
"        1#2345)6      ",
"         7890ab       ",
"        cd[efg.h      ",
"       ijkl6#mn.o     ",
"      ipm$.qrs4t.     ",
"      uvwxy  zA0.x    ",
"      89yB    z_..    ",
"      CDt      ExF    ",
"                      ",
"                      ",
"                      ",
"                      ",
"                      "};
