/* XPM */
static char *editcut[] = {
/* columns rows colors chars-per-pixel */
"22 22 11 1",
"  c black",
". c #010101010101",
"X c #03EC03EC03EC",
"o c gray19",
"O c #6A6A6A6A6A6A",
"+ c #9B9B9B9B9B9B",
"@ c #A0A0A0A0A0A0",
"# c #E2E2E2E2E2E2",
"$ c gray91",
"% c gray100",
"& c None",
/* pixels */
"&&&&&&&&&&&&&&&&&&&&&&",
"&&&&&&&&&&&&&&&&&&&&&&",
"&&  X &&&&&&&&&&&&&&&&",
"&   &  &&&&&&&&&&   &&",
"&  &&&  &&&&&&&& %$+ &",
"&  &&&&  &&&&&& %$+ &&",
"&&  &&&& &&&&& %$+ &&&",
"&&&   &  &&&& %$+ &&&&",
"&&&&&    .&& %$+ &&&&&",
"&&&&&&&     %$+ &&&&&&",
"&&&&&&&&&@ %$+ &&&&&&&",
"&&&&&&&&& %o+ &&&&&&&&",
"&&&&&&&    % O &&&&&&&",
"&&&&&    .  %#+ &&&&&&",
"&&&   &  &&& %#+ &&&&&",
"&&  &&&& &&&& %#+ &&&&",
"&  &&&&  &&&&& %#+ &&&",
"&  &&&  &&&&&&& %#+ &&",
"&  &&  &&&&&&&&& %#+ &",
"&&  X &&&&&&&&&&&   &&",
"&&&&&&&&&&&&&&&&&&&&&&",
"&&&&&&&&&&&&&&&&&&&&&&"
};
