/* XPM */
static char * green_belly2_xpm[] = {
"22 16 25 1",
" 	c None",
".	c #1F1F1D",
"+	c #5B7551",
"@	c #86898C",
"#	c #83BB47",
"$	c #7AAA6A",
"%	c #B9F175",
"&	c #A6CA8E",
"*	c #CAFC8A",
"=	c #599037",
"-	c #E1E2E1",
";	c #1E3F1D",
">	c #CAFA96",
",	c #61A937",
"'	c #3D4A3C",
")	c #92D552",
"!	c #EDEDEC",
"~	c #96A094",
"{	c #FAFDF8",
"]	c #B6BAB2",
"^	c #D2D5CF",
"/	c #4D5F48",
"(	c #6EBE36",
"_	c #2E5D22",
":	c #A5EB5D",
"!!-!!!--~/.../]-!!-!!!",
"!!!!!!!/'@]^]@;+!!!!!!",
"{{{{{{+'~^-!-^~'+{{{{{",
"{!{!!@'/$&^&&&$/;@!!{!",
"!-!!-/_==,,$$,==//--!!",
"!!!!^;+=,$,##,,=_;-!!!",
"{{{{-;=,(())))(,,;-{{{",
"!!!!^_,()):)))((,_-!!!",
"-!-!^_,():%%*::),_&!--",
"!-!-^==)::***%:)=+^!!!",
"{{{!-=+(%**>%*%(=@-{!{",
"--!--~++)****%)=+~^-!-",
"---^^]@/+=&:]=+/@]^---",
"-----^]@/'''///@]^^---",
"-!!-!-^]]@+++@~]^-!-!-",
"-^^-^^^]]~]~~]]]^^^^-^"};
