/* XPM */
static char *magick[] = {
/* columns rows colors chars-per-pixel */
"11 19 8 1",
" 	c None",
".	c #000000000000",
"X	c #820782078207",
"o	c #FFFFFFFFFFFF",
"@	c #6E6E6E",
"%	c #5A5A5C",
"&	c #9A9A98",
"=	c #8F8F91",
/* pixels */
"           ",
"   .....   ",
"  .@ooX%.  ",
"  .&...*.  ",
"  .o. .o.  ",
"  .X. .o.  ",
"  .&...o.  ",
"  .=.@.=.  ",
"   ..X..   ",
"    .o.    ",
"   ..o..   ",
"  .@.X.=.  ",
"  .X...X.  ",
"  .X. .*.  ",
"  .X. .*.  ",
"  .o...*.  ",
"  .@*o*X.  ",
"   .....   ",
"           "}
