/* XPM */
static char *up[] = {
/* columns rows colors chars-per-pixel */
"22 22 77 1",
"  c #02C802C802C8",
". c #046E046E046E",
"X c #077207720772",
"o c #08F408F408F4",
"O c #0B7E0B7E0B7E",
"+ c #0D370D370D37",
"@ c #0E220E220E22",
"# c #0EF40EF40EF4",
"$ c #105110511051",
"% c #130013001300",
"& c #13D113D113D1",
"* c #150D150D150D",
"= c #2CB22CB22CB2",
"- c #326132613261",
"; c #376E376E376E",
": c #3F553F553F55",
"> c #431B431B431B",
", c #44A344A344A3",
"< c #498D498D498D",
"1 c #4B534B534B53",
"2 c #4D534D534D53",
"3 c #4F2D4F2D4F2D",
"4 c #501850185018",
"5 c #52A752A752A7",
"6 c #537853785378",
"7 c #565D565D565D",
"8 c #579D579D579D",
"9 c #587258725872",
"0 c #61B561B561B5",
"q c #61FD61FD61FD",
"w c #6CED6CED6CED",
"e c #6EEC6EEC6EEC",
"r c #6F5A6F5A6F5A",
"t c #72D472D472D4",
"y c #733A733A733A",
"u c #77D077D077D0",
"i c #790979097909",
"p c #7B0B7B0B7B0B",
"a c #7DC07DC07DC0",
"s c #7E307E307E30",
"d c #816281628162",
"f c #837A837A837A",
"g c #856785678567",
"h c #88D388D388D3",
"j c #8DD38DD38DD3",
"k c #8E2C8E2C8E2C",
"l c #8F8A8F8A8F8A",
"z c #90FC90FC90FC",
"x c #919491949194",
"c c #947F947F947F",
"v c #96B296B296B2",
"b c #995299529952",
"n c #9B4D9B4D9B4D",
"m c #9FF09FF09FF0",
"M c #A130A130A130",
"N c #A693A693A693",
"B c #AAA7AAA7AAA7",
"V c #ACA4ACA4ACA4",
"C c #B26BB26BB26B",
"Z c #B3B1B3B1B3B1",
"A c #B67AB67AB67A",
"S c #B82BB82BB82B",
"D c #C15CC15CC15C",
"F c #C4A7C4A7C4A7",
"G c #C6FAC6FAC6FA",
"H c #D25FD25FD25F",
"J c #D626D626D626",
"K c #E08AE08AE08A",
"L c #E3C2E3C2E3C2",
"P c #E485E485E485",
"I c #E982E982E982",
"U c #EBDDEBDDEBDD",
"Y c #ECE5ECE5ECE5",
"T c #F0B9F0B9F0B9",
"R c #FC38FC38FC38",
"E c #FD66FD66FD66",
"W c None",
/* pixels */
"WWWWWWWWWWWWWWWWWWWWWW",
"WWWWWWWWWWWWWWWWWWWWWW",
"WWWWWWWWWWWWWWWWWWWWWW",
"WWWWWWWWWW=oWWWWWWWWWW",
"WWWWWWWWW=l4+WWWWWWWWW",
"WWWWWWWW=mUa4+WWWWWWWW",
"WWWWWWW=cRJnp4@WWWWWWW",
"WWWWWW=bEISxBh4+WWWWWW",
"WWWWW=bEYAhixZs4+WWWWW",
"WWWW=zUFNduyfzB04oWWWW",
"WWW=,q79huyyhr8<>-oWWW",
"WW=-----glutvr-----XWW",
"WWWWWWW.DGjyV5*WWWWWWW",
"WWWWWWW3TKAwB6%WWWWWWW",
"WWWWWWW:RPFeV6%WWWWWWW",
"WWWWWWW=RHCec4%WWWWWWW",
"WWWWWWW=LMhyk2&WWWWWWW",
"WWWWWWW=18122;#WWWWWWW",
"WWWWWWW +$$$$O WWWWWWW",
"WWWWWWWWWWWWWWWWWWWWWW",
"WWWWWWWWWWWWWWWWWWWWWW",
"WWWWWWWWWWWWWWWWWWWWWW"
};
