<?xml version="1.0" encoding="UTF-8" standalone="no"?>
<!-- Created with Inkscape (http://www.inkscape.org/) -->
<svg
   xmlns:dc="http://purl.org/dc/elements/1.1/"
   xmlns:cc="http://creativecommons.org/ns#"
   xmlns:rdf="http://www.w3.org/1999/02/22-rdf-syntax-ns#"
   xmlns:svg="http://www.w3.org/2000/svg"
   xmlns="http://www.w3.org/2000/svg"
   xmlns:sodipodi="http://sodipodi.sourceforge.net/DTD/sodipodi-0.dtd"
   xmlns:inkscape="http://www.inkscape.org/namespaces/inkscape"
   width="32px"
   height="32px"
   id="svg3302"
   sodipodi:version="0.32"
   inkscape:version="0.46"
   sodipodi:docname="delete_subtree.svg"
   inkscape:output_extension="org.inkscape.output.svg.inkscape"
   inkscape:export-filename="/home/pajas/projects/med-devel/icons/delete_subtree.png"
   inkscape:export-xdpi="90"
   inkscape:export-ydpi="90">
  <defs
     id="defs3304">
    <marker
       inkscape:stockid="TriangleInM"
       orient="auto"
       refY="0.0"
       refX="0.0"
       id="TriangleInM"
       style="overflow:visible">
      <path
         id="path7807"
         d="M 5.77,0.0 L -2.88,5.0 L -2.88,-5.0 L 5.77,0.0 z "
         style="fill-rule:evenodd;stroke:#000000;stroke-width:1.0pt;marker-start:none"
         transform="scale(-0.4)" />
    </marker>
    <marker
       inkscape:stockid="TriangleInS"
       orient="auto"
       refY="0.0"
       refX="0.0"
       id="TriangleInS"
       style="overflow:visible">
      <path
         id="path7810"
         d="M 5.77,0.0 L -2.88,5.0 L -2.88,-5.0 L 5.77,0.0 z "
         style="fill-rule:evenodd;stroke:#000000;stroke-width:1.0pt;marker-start:none"
         transform="scale(-0.2)" />
    </marker>
    <marker
       inkscape:stockid="Arrow2Lstart"
       orient="auto"
       refY="0.0"
       refX="0.0"
       id="Arrow2Lstart"
       style="overflow:visible">
      <path
         id="path7688"
         style="font-size:12.0;fill-rule:evenodd;stroke-width:0.62500000;stroke-linejoin:round"
         d="M 8.7185878,4.0337352 L -2.2072895,0.016013256 L 8.7185884,-4.0017078 C 6.9730900,-1.6296469 6.9831476,1.6157441 8.7185878,4.0337352 z "
         transform="scale(1.1) translate(1,0)" />
    </marker>
    <marker
       inkscape:stockid="Arrow2Sstart"
       orient="auto"
       refY="0.0"
       refX="0.0"
       id="Arrow2Sstart"
       style="overflow:visible">
      <path
         id="path7700"
         style="font-size:12.0;fill-rule:evenodd;stroke-width:0.62500000;stroke-linejoin:round"
         d="M 8.7185878,4.0337352 L -2.2072895,0.016013256 L 8.7185884,-4.0017078 C 6.9730900,-1.6296469 6.9831476,1.6157441 8.7185878,4.0337352 z "
         transform="scale(0.3) translate(-2.3,0)" />
    </marker>
    <marker
       inkscape:stockid="Arrow1Lstart"
       orient="auto"
       refY="0.0"
       refX="0.0"
       id="Arrow1Lstart"
       style="overflow:visible">
      <path
         id="path7670"
         d="M 0.0,0.0 L 5.0,-5.0 L -12.5,0.0 L 5.0,5.0 L 0.0,0.0 z "
         style="fill-rule:evenodd;stroke:#000000;stroke-width:1.0pt;marker-start:none"
         transform="scale(0.8) translate(12.5,0)" />
    </marker>
    <inkscape:perspective
       sodipodi:type="inkscape:persp3d"
       inkscape:vp_x="0 : 16 : 1"
       inkscape:vp_y="0 : 1000 : 0"
       inkscape:vp_z="32 : 16 : 1"
       inkscape:persp3d-origin="16 : 10.666667 : 1"
       id="perspective3310" />
  </defs>
  <sodipodi:namedview
     id="base"
     pagecolor="#ffffff"
     bordercolor="#666666"
     borderopacity="1.0"
     inkscape:pageopacity="0.0"
     inkscape:pageshadow="2"
     inkscape:zoom="5.6568542"
     inkscape:cx="11.315331"
     inkscape:cy="-6.1030613"
     inkscape:current-layer="layer1"
     showgrid="true"
     inkscape:grid-bbox="true"
     inkscape:document-units="px"
     inkscape:window-width="1061"
     inkscape:window-height="959"
     inkscape:window-x="439"
     inkscape:window-y="235"
     showguides="true"
     inkscape:guide-bbox="true" />
  <metadata
     id="metadata3307">
    <rdf:RDF>
      <cc:Work
         rdf:about="">
        <dc:format>image/svg+xml</dc:format>
        <dc:type
           rdf:resource="http://purl.org/dc/dcmitype/StillImage" />
      </cc:Work>
    </rdf:RDF>
  </metadata>
  <g
     id="layer1"
     inkscape:label="Layer 1"
     inkscape:groupmode="layer">
    <path
       style="opacity:1;fill:#000000;fill-opacity:0.75;fill-rule:evenodd;stroke:#000000;stroke-width:2.14099503;stroke-linecap:butt;stroke-linejoin:miter;stroke-miterlimit:4;stroke-dasharray:none;stroke-opacity:1"
       d="M 5.500296,4.9641467 L 17.7742,22.472624"
       id="path2641"
       sodipodi:nodetypes="cc" />
    <path
       sodipodi:type="arc"
       style="opacity:1;fill:#000000;fill-opacity:1;fill-rule:evenodd;stroke:#000000;stroke-width:1;stroke-linecap:butt;stroke-linejoin:round;stroke-miterlimit:4;stroke-dasharray:none;stroke-dashoffset:0;stroke-opacity:1"
       id="path2643"
       sodipodi:cx="124.28571"
       sodipodi:cy="239.50504"
       sodipodi:rx="30"
       sodipodi:ry="30"
       d="M 154.28571,239.50504 A 30,30 0 1 1 94.285713,239.50504 A 30,30 0 1 1 154.28571,239.50504 z"
       transform="matrix(0.1120397,0,0,0.1120397,-8.524999,-22.049436)" />
    <path
       sodipodi:type="arc"
       style="opacity:1;fill:#ffff00;fill-opacity:1;fill-rule:evenodd;stroke:#ff6600;stroke-width:7.85886478;stroke-linecap:butt;stroke-linejoin:round;stroke-miterlimit:4;stroke-dasharray:none;stroke-dashoffset:0;stroke-opacity:1"
       id="path2645"
       sodipodi:cx="124.28571"
       sodipodi:cy="239.50504"
       sodipodi:rx="30"
       sodipodi:ry="30"
       d="M 154.28571,239.50504 A 30,30 0 1 1 94.285713,239.50504 A 30,30 0 1 1 154.28571,239.50504 z"
       transform="matrix(0.1342861,0,0,0.1342861,1.2387092,-9.8437434)" />
    <path
       sodipodi:type="star"
       style="opacity:0.54107648;fill:#b3b3b3;fill-opacity:1;fill-rule:evenodd;stroke:none;stroke-width:0.95999998;stroke-linecap:round;stroke-linejoin:round;stroke-miterlimit:4;stroke-dasharray:none;stroke-dashoffset:0;stroke-opacity:1"
       id="path2649"
       sodipodi:sides="3"
       sodipodi:cx="18.561552"
       sodipodi:cy="9.7261362"
       sodipodi:r1="12.826973"
       sodipodi:r2="4.8677831"
       sodipodi:arg1="0.51914611"
       sodipodi:arg2="1.5663437"
       inkscape:flatsided="true"
       inkscape:rounded="0.013872095"
       inkscape:randomized="0"
       d="M 29.698483,16.090097 C 29.545575,16.357686 7.6370196,16.455238 7.4817347,16.189021 C 7.3264499,15.922805 18.196245,-3.0993373 18.504438,-3.1007096 C 18.812631,-3.1020819 29.851391,15.822508 29.698483,16.090097 z"
       transform="matrix(1.2871626,0,0,1.2871626,-6.427552,10.57064)" />
    <path
       id="path2647"
       d="M 5.7592477,10.453219 C 5.4235547,10.655212 5.1403167,10.990217 4.9886747,11.399311 C 4.6853887,12.217498 5.0260997,13.032965 5.7517197,13.232044 L 10.369972,14.499099 L 8.7054937,18.989445 C 8.4439707,19.694968 8.9105007,20.452947 9.7519947,20.683817 C 10.593488,20.914688 11.483948,20.52901 11.74547,19.823488 L 13.409948,15.333143 L 18.028201,16.600198 C 18.75382,16.799278 19.586475,16.300929 19.88976,15.482742 C 20.193046,14.664555 19.849467,13.843496 19.123847,13.644417 L 14.505593,12.377361 L 16.170072,7.8870168 C 16.431595,7.1814938 15.967934,6.4291063 15.126441,6.1982353 C 14.284947,5.9673643 13.39162,6.3474533 13.130097,7.0529753 L 11.465618,11.54332 L 6.8473657,10.276265 C 6.4845567,10.176725 6.0949417,10.251227 5.7592477,10.453219 z"
       style="fill:#ff0000;fill-opacity:1;stroke:#800000;stroke-width:1.28935742;stroke-linecap:round;stroke-linejoin:miter;stroke-miterlimit:4;stroke-opacity:1"
       inkscape:transform-center-x="-4.5"
       inkscape:transform-center-y="2.25" />
  </g>
</svg>
