<?xml version="1.0" encoding="UTF-8" standalone="no"?>
<!-- Created with Inkscape (http://www.inkscape.org/) -->
<svg
   xmlns:dc="http://purl.org/dc/elements/1.1/"
   xmlns:cc="http://web.resource.org/cc/"
   xmlns:rdf="http://www.w3.org/1999/02/22-rdf-syntax-ns#"
   xmlns:svg="http://www.w3.org/2000/svg"
   xmlns="http://www.w3.org/2000/svg"
   xmlns:sodipodi="http://sodipodi.sourceforge.net/DTD/sodipodi-0.dtd"
   xmlns:inkscape="http://www.inkscape.org/namespaces/inkscape"
   width="64px"
   height="64px"
   id="svg2159"
   sodipodi:version="0.32"
   inkscape:version="0.45.1"
   sodipodi:docbase="/home/pajas/projects/med-devel/icons"
   sodipodi:docname="pokusy_tred.svg"
   inkscape:output_extension="org.inkscape.output.svg.inkscape">
  <defs
     id="defs2161">
    <marker
       inkscape:stockid="Arrow1Send"
       orient="auto"
       refY="0.0"
       refX="0.0"
       id="Arrow1Send"
       style="overflow:visible;">
      <path
         id="path5117"
         d="M 0.0,0.0 L 5.0,-5.0 L -12.5,0.0 L 5.0,5.0 L 0.0,0.0 z "
         style="fill-rule:evenodd;stroke:#000000;stroke-width:1.0pt;marker-start:none;"
         transform="scale(0.2) rotate(180) translate(6,0)" />
    </marker>
    <marker
       style="overflow:visible"
       inkscape:stockid="InfiniteLineStart"
       id="InfiniteLineStart"
       refX="0"
       refY="0"
       orient="auto">
      <g
         id="g5284"
         transform="translate(-13,0)">
        <circle
           id="circle5286"
           r="0.8"
           cy="0"
           cx="3" />
        <circle
           id="circle5288"
           r="0.8"
           cy="0"
           cx="6.5" />
        <circle
           id="circle5290"
           r="0.8"
           cy="0"
           cx="10" />
      </g>
    </marker>
    <marker
       inkscape:stockid="RazorWire"
       id="RazorWire"
       refX="0"
       refY="0"
       orient="auto">
       style=&quot;overflow:visible&quot;&gt;
      <path
   id="path5272"
   transform="scale(0.8,0.8)"
   style="fill:#808080;fill-opacity:1;fill-rule:evenodd;stroke:#000000;stroke-width:0.1pt"
   d="M 0.022727273,-0.74009011 L 0.022727273,0.69740989 L -7.7585227,3.0099099 L 10.678977,3.0099099 L 3.4914773,0.69740989 L 3.4914773,-0.74009011 L 10.741477,-2.8963401 L -7.7272727,-2.8963401 L 0.022727273,-0.74009011 z " />
</marker>
    <marker
       inkscape:stockid="Club"
       orient="auto"
       refY="0.0"
       refX="0.0"
       id="Club"
       style="overflow:visible">
      <path
         id="path5269"
         d="M -1.5971367,-7.0977635 C -3.4863874,-7.0977635 -5.0235187,-5.5606321 -5.0235187,-3.6713813 C -5.0235187,-3.0147015 -4.7851656,-2.4444556 -4.4641095,-1.9232271 C -4.5028609,-1.8911157 -4.5437814,-1.8647646 -4.5806531,-1.8299921 C -5.2030765,-2.6849849 -6.1700514,-3.2751330 -7.3077730,-3.2751330 C -9.1970245,-3.2751331 -10.734155,-1.7380016 -10.734155,0.15124914 C -10.734155,2.0404999 -9.1970245,3.5776313 -7.3077730,3.5776313 C -6.3143268,3.5776313 -5.4391540,3.1355702 -4.8137404,2.4588126 C -4.9384274,2.8137041 -5.0235187,3.1803000 -5.0235187,3.5776313 C -5.0235187,5.4668819 -3.4863874,7.0040135 -1.5971367,7.0040135 C 0.29211394,7.0040135 1.8292454,5.4668819 1.8292454,3.5776313 C 1.8292454,2.7842354 1.5136868,2.0838028 1.0600576,1.5031550 C 2.4152718,1.7663868 3.7718375,2.2973711 4.7661444,3.8340272 C 4.0279463,3.0958289 3.5540908,1.7534117 3.5540908,-0.058529361 L 2.9247554,-0.10514681 L 3.5074733,-0.12845553 C 3.5074733,-1.9403966 3.9580199,-3.2828138 4.6962183,-4.0210121 C 3.7371277,-2.5387813 2.4390549,-1.9946496 1.1299838,-1.7134486 C 1.5341802,-2.2753578 1.8292454,-2.9268556 1.8292454,-3.6713813 C 1.8292454,-5.5606319 0.29211394,-7.0977635 -1.5971367,-7.0977635 z "
         style="fill-rule:evenodd;stroke:#000000;stroke-width:0.74587913pt;marker-start:none"
         transform="scale(0.6)" />
    </marker>
    <marker
       inkscape:stockid="CurvyCross"
       orient="auto"
       refY="0.0"
       refX="0.0"
       id="CurvyCross"
       style="overflow:visible">
      <g
         id="g5230"
         transform="scale(0.6)">
        <path
           id="path5232"
           d="M 4.6254930,-5.0456926 C 1.8654930,-5.0456926 -0.37450702,-2.8056926 -0.37450702,-0.045692580 C -0.37450702,2.7143074 1.8654930,4.9543074 4.6254930,4.9543074"
           style="fill:none;fill-rule:evenodd;stroke:#000000;stroke-width:1.0pt;marker-start:none;marker-end:none" />
        <path
           id="path5234"
           d="M -5.4129913,-5.0456926 C -2.6529913,-5.0456926 -0.41299131,-2.8056926 -0.41299131,-0.045692580 C -0.41299131,2.7143074 -2.6529913,4.9543074 -5.4129913,4.9543074"
           style="fill:none;fill-rule:evenodd;stroke:#000000;stroke-width:1.0pt;marker-start:none;marker-end:none" />
      </g>
    </marker>
    <marker
       inkscape:stockid="CurveOut"
       orient="auto"
       refY="0.0"
       refX="0.0"
       id="CurveOut"
       style="overflow:visible">
      <path
         id="path5227"
         d="M -5.4129913,-5.0456926 C -2.6529913,-5.0456926 -0.41299131,-2.8056926 -0.41299131,-0.045692580 C -0.41299131,2.7143074 -2.6529913,4.9543074 -5.4129913,4.9543074"
         style="fill:none;fill-rule:evenodd;stroke:#000000;stroke-width:1.0pt;marker-start:none;marker-end:none"
         transform="scale(0.6)" />
    </marker>
    <marker
       inkscape:stockid="CurveIn"
       orient="auto"
       refY="0.0"
       refX="0.0"
       id="CurveIn"
       style="overflow:visible">
      <path
         id="path5224"
         d="M 4.6254930,-5.0456926 C 1.8654930,-5.0456926 -0.37450702,-2.8056926 -0.37450702,-0.045692580 C -0.37450702,2.7143074 1.8654930,4.9543074 4.6254930,4.9543074"
         style="fill-rule:evenodd;stroke:#000000;stroke-width:1.0pt;marker-start:none;marker-end:none;fill:none"
         transform="scale(0.6)" />
    </marker>
    <marker
       inkscape:stockid="SemiCircleOut"
       orient="auto"
       refY="0.0"
       refX="0.0"
       id="SemiCircleOut"
       style="overflow:visible">
      <path
         id="path5221"
         d="M -2.5,-0.80913858 C -2.5,1.9508614 -4.7400000,4.1908614 -7.5,4.1908614 L -7.5,-5.8091386 C -4.7400000,-5.8091386 -2.5,-3.5691386 -2.5,-0.80913858 z "
         style="fill-rule:evenodd;stroke:#000000;stroke-width:1.0pt;marker-start:none;marker-end:none"
         transform="scale(0.6) translate(7.125493,0.763446)" />
    </marker>
    <marker
       inkscape:stockid="SemiCircleIn"
       orient="auto"
       refY="0.0"
       refX="0.0"
       id="SemiCircleIn"
       style="overflow:visible">
      <path
         id="path5218"
         d="M -0.37450702,-0.045692580 C -0.37450702,2.7143074 1.8654930,4.9543074 4.6254930,4.9543074 L 4.6254930,-5.0456926 C 1.8654930,-5.0456926 -0.37450702,-2.8056926 -0.37450702,-0.045692580 z "
         style="fill-rule:evenodd;stroke:#000000;stroke-width:1.0pt;marker-start:none;marker-end:none"
         transform="scale(0.6)" />
    </marker>
    <marker
       inkscape:stockid="StopS"
       orient="auto"
       refY="0.0"
       refX="0.0"
       id="StopS"
       style="overflow:visible">
      <path
         id="path5215"
         d="M 0.0,5.65 L 0.0,-5.65"
         style="fill:none;fill-opacity:0.75000000;fill-rule:evenodd;stroke:#000000;stroke-width:1.0pt"
         transform="scale(0.2)" />
    </marker>
    <marker
       inkscape:stockid="StopM"
       orient="auto"
       refY="0.0"
       refX="0.0"
       id="StopM"
       style="overflow:visible">
      <path
         id="path5212"
         d="M 0.0,5.65 L 0.0,-5.65"
         style="fill:none;fill-opacity:0.75000000;fill-rule:evenodd;stroke:#000000;stroke-width:1.0pt"
         transform="scale(0.4)" />
    </marker>
    <marker
       inkscape:stockid="StopL"
       orient="auto"
       refY="0.0"
       refX="0.0"
       id="StopL"
       style="overflow:visible">
      <path
         id="path5209"
         d="M 0.0,5.65 L 0.0,-5.65"
         style="fill:none;fill-opacity:0.75000000;fill-rule:evenodd;stroke:#000000;stroke-width:1.0pt"
         transform="scale(0.8)" />
    </marker>
    <marker
       inkscape:stockid="TriangleOutS"
       orient="auto"
       refY="0.0"
       refX="0.0"
       id="TriangleOutS"
       style="overflow:visible">
      <path
         id="path5206"
         d="M 5.77,0.0 L -2.88,5.0 L -2.88,-5.0 L 5.77,0.0 z "
         style="fill-rule:evenodd;stroke:#000000;stroke-width:1.0pt;marker-start:none"
         transform="scale(0.2)" />
    </marker>
    <marker
       inkscape:stockid="TriangleInS"
       orient="auto"
       refY="0.0"
       refX="0.0"
       id="TriangleInS"
       style="overflow:visible">
      <path
         id="path5197"
         d="M 5.77,0.0 L -2.88,5.0 L -2.88,-5.0 L 5.77,0.0 z "
         style="fill-rule:evenodd;stroke:#000000;stroke-width:1.0pt;marker-start:none"
         transform="scale(-0.2)" />
    </marker>
    <marker
       inkscape:stockid="TriangleInM"
       orient="auto"
       refY="0.0"
       refX="0.0"
       id="TriangleInM"
       style="overflow:visible">
      <path
         id="path5194"
         d="M 5.77,0.0 L -2.88,5.0 L -2.88,-5.0 L 5.77,0.0 z "
         style="fill-rule:evenodd;stroke:#000000;stroke-width:1.0pt;marker-start:none"
         transform="scale(-0.4)" />
    </marker>
    <marker
       inkscape:stockid="TriangleInL"
       orient="auto"
       refY="0.0"
       refX="0.0"
       id="TriangleInL"
       style="overflow:visible">
      <path
         id="path5191"
         d="M 5.77,0.0 L -2.88,5.0 L -2.88,-5.0 L 5.77,0.0 z "
         style="fill-rule:evenodd;stroke:#000000;stroke-width:1.0pt;marker-start:none"
         transform="scale(-0.8)" />
    </marker>
    <marker
       inkscape:stockid="DiamondS"
       orient="auto"
       refY="0.0"
       refX="0.0"
       id="DiamondS"
       style="overflow:visible">
      <path
         id="path5188"
         d="M 0,-7.0710768 L -7.0710894,0 L 0,7.0710589 L 7.0710462,0 L 0,-7.0710768 z "
         style="fill-rule:evenodd;stroke:#000000;stroke-width:1.0pt;marker-start:none"
         transform="scale(0.2)" />
    </marker>
    <marker
       inkscape:stockid="DiamondM"
       orient="auto"
       refY="0.0"
       refX="0.0"
       id="DiamondM"
       style="overflow:visible">
      <path
         id="path5185"
         d="M 0,-7.0710768 L -7.0710894,0 L 0,7.0710589 L 7.0710462,0 L 0,-7.0710768 z "
         style="fill-rule:evenodd;stroke:#000000;stroke-width:1.0pt;marker-start:none"
         transform="scale(0.4)" />
    </marker>
    <marker
       inkscape:stockid="DiamondL"
       orient="auto"
       refY="0.0"
       refX="0.0"
       id="DiamondL"
       style="overflow:visible">
      <path
         id="path5182"
         d="M 0,-7.0710768 L -7.0710894,0 L 0,7.0710589 L 7.0710462,0 L 0,-7.0710768 z "
         style="fill-rule:evenodd;stroke:#000000;stroke-width:1.0pt;marker-start:none"
         transform="scale(0.8)" />
    </marker>
    <marker
       inkscape:stockid="SquareS"
       orient="auto"
       refY="0.0"
       refX="0.0"
       id="SquareS"
       style="overflow:visible">
      <path
         id="path5179"
         d="M -5.0,-5.0 L -5.0,5.0 L 5.0,5.0 L 5.0,-5.0 L -5.0,-5.0 z "
         style="fill-rule:evenodd;stroke:#000000;stroke-width:1.0pt;marker-start:none"
         transform="scale(0.2)" />
    </marker>
    <marker
       inkscape:stockid="SquareM"
       orient="auto"
       refY="0.0"
       refX="0.0"
       id="SquareM"
       style="overflow:visible">
      <path
         id="path5176"
         d="M -5.0,-5.0 L -5.0,5.0 L 5.0,5.0 L 5.0,-5.0 L -5.0,-5.0 z "
         style="fill-rule:evenodd;stroke:#000000;stroke-width:1.0pt;marker-start:none"
         transform="scale(0.4)" />
    </marker>
    <marker
       inkscape:stockid="SquareL"
       orient="auto"
       refY="0.0"
       refX="0.0"
       id="SquareL"
       style="overflow:visible">
      <path
         id="path5173"
         d="M -5.0,-5.0 L -5.0,5.0 L 5.0,5.0 L 5.0,-5.0 L -5.0,-5.0 z "
         style="fill-rule:evenodd;stroke:#000000;stroke-width:1.0pt;marker-start:none"
         transform="scale(0.8)" />
    </marker>
    <marker
       inkscape:stockid="Dot_s"
       orient="auto"
       refY="0.0"
       refX="0.0"
       id="Dot_s"
       style="overflow:visible">
      <path
         id="path5170"
         d="M -2.5,-1.0 C -2.5,1.7600000 -4.7400000,4.0 -7.5,4.0 C -10.260000,4.0 -12.5,1.7600000 -12.5,-1.0 C -12.5,-3.7600000 -10.260000,-6.0 -7.5,-6.0 C -4.7400000,-6.0 -2.5,-3.7600000 -2.5,-1.0 z "
         style="fill-rule:evenodd;stroke:#000000;stroke-width:1.0pt;marker-start:none;marker-end:none"
         transform="scale(0.2) translate(7.4, 1)" />
    </marker>
    <marker
       inkscape:stockid="Dot_l"
       orient="auto"
       refY="0.0"
       refX="0.0"
       id="Dot_l"
       style="overflow:visible">
      <path
         id="path5164"
         d="M -2.5,-1.0 C -2.5,1.7600000 -4.7400000,4.0 -7.5,4.0 C -10.260000,4.0 -12.5,1.7600000 -12.5,-1.0 C -12.5,-3.7600000 -10.260000,-6.0 -7.5,-6.0 C -4.7400000,-6.0 -2.5,-3.7600000 -2.5,-1.0 z "
         style="fill-rule:evenodd;stroke:#000000;stroke-width:1.0pt;marker-start:none;marker-end:none"
         transform="scale(0.8) translate(7.4, 1)" />
    </marker>
    <marker
       style="overflow:visible"
       id="DistanceOut"
       refX="0.0"
       refY="0.0"
       orient="auto"
       inkscape:stockid="DistanceOut">
      <g
         id="g5158">
        <path
           style="fill:none;stroke:#ffffff;stroke-width:1.15;stroke-linecap:square"
           d="M 0,0 L -2,0"
           id="path2316" />
        <path
           style="fill:#000000;fill-rule:evenodd;stroke:none"
           d="M 0,0 L -13,4 L -9,0 -13,-4 L 0,0 z "
           id="path2312" />
        <path
           style="fill:none;stroke:#000000;stroke-width:1;stroke-linecap:square"
           d="M 0,-4 L 0,40"
           id="path2314" />
      </g>
    </marker>
    <marker
       style="overflow:visible"
       id="DistanceIn"
       refX="0.0"
       refY="0.0"
       orient="auto"
       inkscape:stockid="DistanceIn">
      <g
         id="g2300">
        <path
           style="fill:none;stroke:#ffffff;stroke-width:1.15;stroke-linecap:square"
           d="M 0,0 L 2,0"
           id="path2306" />
        <path
           style="fill:#000000;fill-rule:evenodd;stroke:none"
           d="M 0,0 L 13,4 L 9,0 13,-4 L 0,0 z "
           id="path2302" />
        <path
           style="fill:none;stroke:#000000;stroke-width:1;stroke-linecap:square"
           d="M 0,-4 L 0,40"
           id="path2304" />
      </g>
    </marker>
    <marker
       inkscape:stockid="Arrow2Mstart"
       orient="auto"
       refY="0.0"
       refX="0.0"
       id="Arrow2Mstart"
       style="overflow:visible">
      <path
         id="path5126"
         style="font-size:12.0;fill-rule:evenodd;stroke-width:0.62500000;stroke-linejoin:round"
         d="M 8.7185878,4.0337352 L -2.2072895,0.016013256 L 8.7185884,-4.0017078 C 6.9730900,-1.6296469 6.9831476,1.6157441 8.7185878,4.0337352 z "
         transform="scale(0.6) translate(0,0)" />
    </marker>
    <marker
       inkscape:stockid="Tail"
       orient="auto"
       refY="0.0"
       refX="0.0"
       id="Tail"
       style="overflow:visible">
      <g
         id="g5138"
         transform="scale(-1.2)">
        <path
           id="path5140"
           d="M -3.8048674,-3.9585227 L 0.54352094,0"
           style="fill:none;fill-rule:evenodd;stroke:#000000;stroke-width:0.8;marker-start:none;marker-end:none;stroke-linecap:round" />
        <path
           id="path5142"
           d="M -1.2866832,-3.9585227 L 3.0617053,0"
           style="fill:none;fill-rule:evenodd;stroke:#000000;stroke-width:0.8;marker-start:none;marker-end:none;stroke-linecap:round" />
        <path
           id="path5144"
           d="M 1.3053582,-3.9585227 L 5.6537466,0"
           style="fill:none;fill-rule:evenodd;stroke:#000000;stroke-width:0.8;marker-start:none;marker-end:none;stroke-linecap:round" />
        <path
           id="path5146"
           d="M -3.8048674,4.1775838 L 0.54352094,0.21974226"
           style="fill:none;fill-rule:evenodd;stroke:#000000;stroke-width:0.8;marker-start:none;marker-end:none;stroke-linecap:round" />
        <path
           id="path5148"
           d="M -1.2866832,4.1775838 L 3.0617053,0.21974226"
           style="fill:none;fill-rule:evenodd;stroke:#000000;stroke-width:0.8;marker-start:none;marker-end:none;stroke-linecap:round" />
        <path
           id="path5150"
           d="M 1.3053582,4.1775838 L 5.6537466,0.21974226"
           style="fill:none;fill-rule:evenodd;stroke:#000000;stroke-width:0.8;marker-start:none;marker-end:none;stroke-linecap:round" />
      </g>
    </marker>
    <marker
       inkscape:stockid="Arrow2Send"
       orient="auto"
       refY="0.0"
       refX="0.0"
       id="Arrow2Send"
       style="overflow:visible;">
      <path
         id="path5135"
         style="font-size:12.0;fill-rule:evenodd;stroke-width:0.62500000;stroke-linejoin:round;"
         d="M 8.7185878,4.0337352 L -2.2072895,0.016013256 L 8.7185884,-4.0017078 C 6.9730900,-1.6296469 6.9831476,1.6157441 8.7185878,4.0337352 z "
         transform="scale(0.3) rotate(180) translate(-2.3,0)" />
    </marker>
    <marker
       inkscape:stockid="Arrow2Sstart"
       orient="auto"
       refY="0.0"
       refX="0.0"
       id="Arrow2Sstart"
       style="overflow:visible">
      <path
         id="path5132"
         style="font-size:12.0;fill-rule:evenodd;stroke-width:0.62500000;stroke-linejoin:round"
         d="M 8.7185878,4.0337352 L -2.2072895,0.016013256 L 8.7185884,-4.0017078 C 6.9730900,-1.6296469 6.9831476,1.6157441 8.7185878,4.0337352 z "
         transform="scale(0.3) translate(-2.3,0)" />
    </marker>
    <marker
       inkscape:stockid="Arrow2Mend"
       orient="auto"
       refY="0.0"
       refX="0.0"
       id="Arrow2Mend"
       style="overflow:visible;">
      <path
         id="path5129"
         style="font-size:12.0;fill-rule:evenodd;stroke-width:0.62500000;stroke-linejoin:round;"
         d="M 8.7185878,4.0337352 L -2.2072895,0.016013256 L 8.7185884,-4.0017078 C 6.9730900,-1.6296469 6.9831476,1.6157441 8.7185878,4.0337352 z "
         transform="scale(0.6) rotate(180) translate(0,0)" />
    </marker>
    <marker
       inkscape:stockid="TriangleOutL"
       orient="auto"
       refY="0.0"
       refX="0.0"
       id="TriangleOutL"
       style="overflow:visible">
      <path
         id="path5200"
         d="M 5.77,0.0 L -2.88,5.0 L -2.88,-5.0 L 5.77,0.0 z "
         style="fill-rule:evenodd;stroke:#000000;stroke-width:1.0pt;marker-start:none"
         transform="scale(0.8)" />
    </marker>
    <marker
       inkscape:stockid="TriangleOutM"
       orient="auto"
       refY="0.0"
       refX="0.0"
       id="TriangleOutM"
       style="overflow:visible">
      <path
         id="path5203"
         d="M 5.77,0.0 L -2.88,5.0 L -2.88,-5.0 L 5.77,0.0 z "
         style="fill-rule:evenodd;stroke:#000000;stroke-width:1.0pt;marker-start:none"
         transform="scale(0.4)" />
    </marker>
    <marker
       style="overflow:visible"
       inkscape:stockid="InfiniteLineEnd"
       id="InfiniteLineEnd"
       refX="0"
       refY="0"
       orient="auto">
      <g
         id="g5275">
        <circle
           id="circle5277"
           r="0.8"
           cy="0"
           cx="3" />
        <circle
           id="circle5279"
           r="0.8"
           cy="0"
           cx="6.5" />
        <circle
           id="circle5281"
           r="0.8"
           cy="0"
           cx="10" />
      </g>
    </marker>
    <marker
       inkscape:stockid="Torso"
       orient="auto"
       refY="0.0"
       refX="0.0"
       id="Torso"
       style="overflow:visible">
      <g
         id="g5252"
         transform="scale(0.7)">
        <path
           id="path5254"
           d="M -4.7792281,-3.2395420 C -2.4288541,-2.8736027 0.52103922,-1.3019943 0.25792722,0.38794346 C -0.0051877922,2.0778819 -2.2126741,2.6176539 -4.5630471,2.2517169 C -6.9134221,1.8857769 -8.5210350,0.75201414 -8.2579220,-0.93792336 C -7.9948090,-2.6278615 -7.1296041,-3.6054813 -4.7792281,-3.2395420 z "
           style="fill:none;fill-opacity:0.75000000;fill-rule:evenodd;stroke:#000000;stroke-width:1.2500000;marker-start:none;marker-mid:none;marker-end:none" />
        <path
           id="path5256"
           d="M 4.4598789,0.088665736 C -2.5564571,-4.3783320 5.2248769,-3.9061806 -0.84829578,-8.7197331"
           style="fill:none;fill-opacity:0.75000000;fill-rule:evenodd;stroke:#000000;stroke-width:1.0000000pt;marker-end:none" />
        <path
           id="path5258"
           d="M 4.9298719,0.057520736 C -1.3872731,1.7494689 1.8027579,5.4782079 -4.9448731,7.5462725"
           style="fill:none;fill-opacity:0.75000000;fill-rule:evenodd;stroke:#000000;stroke-width:1.0000000pt;marker-start:none;marker-end:none" />
        <rect
           id="rect5260"
           transform="matrix(0.527536,-0.849533,0.887668,0.460484,0,0)"
           y="-1.7408575"
           x="-10.391706"
           height="2.7608147"
           width="2.6366582"
           style="fill-rule:evenodd;stroke-width:1.0000000pt;marker-end:none" />
        <rect
           id="rect5262"
           transform="matrix(0.671205,-0.741272,0.790802,0.612072,0,0)"
           y="-7.9629307"
           x="4.9587269"
           height="2.8614161"
           width="2.7327356"
           style="fill-rule:evenodd;stroke-width:1.0000000pt;marker-end:none" />
        <path
           id="path5264"
           transform="matrix(0,-1.109517,1.109517,0,25.96648,19.71619)"
           d="M 16.779951 -28.685045 A 0.60731727 0.60731727 0 1 0 15.565317,-28.685045 A 0.60731727 0.60731727 0 1 0 16.779951 -28.685045 z"
           sodipodi:ry="0.60731727"
           sodipodi:rx="0.60731727"
           sodipodi:cy="-28.685045"
           sodipodi:cx="16.172634"
           style="fill:#ff0000;fill-opacity:0.75000000;fill-rule:evenodd;stroke:#000000;stroke-width:1.0000000pt;marker-start:none;marker-end:none"
           sodipodi:type="arc" />
        <path
           id="path5266"
           transform="matrix(0,-1.109517,1.109517,0,26.82450,16.99126)"
           d="M 16.779951 -28.685045 A 0.60731727 0.60731727 0 1 0 15.565317,-28.685045 A 0.60731727 0.60731727 0 1 0 16.779951 -28.685045 z"
           sodipodi:ry="0.60731727"
           sodipodi:rx="0.60731727"
           sodipodi:cy="-28.685045"
           sodipodi:cx="16.172634"
           style="fill:#ff0000;fill-opacity:0.75000000;fill-rule:evenodd;stroke:#000000;stroke-width:1.0000000pt;marker-start:none;marker-end:none"
           sodipodi:type="arc" />
      </g>
    </marker>
    <marker
       inkscape:stockid="Legs"
       orient="auto"
       refY="0.0"
       refX="0.0"
       id="Legs"
       style="overflow:visible">
      <g
         id="g5239"
         transform="scale(-0.7)">
        <g
           id="g5241"
           transform="matrix(0,-1.000000,-1.000000,0,20.70862,21.31391)">
          <path
             id="path5243"
             d="M 21.221250,20.675360 C 14.311099,25.396517 18.766725,27.282204 15.380179,34.118595"
             style="fill:none;fill-opacity:0.75000000;fill-rule:evenodd;stroke:#000000;stroke-width:1.0000000pt;marker-start:none;marker-end:none" />
          <path
             id="path5245"
             d="M 21.398110,20.548120 C 20.037601,28.895644 24.934182,29.318060 25.903151,34.373078"
             style="fill:none;fill-opacity:0.75000000;fill-rule:evenodd;stroke:#000000;stroke-width:1.0000000pt;marker-start:none;marker-end:none" />
        </g>
        <path
           id="path5247"
           d="M -14.090070,-6.7318716 L -15.012238,-2.6884886 L -11.049487,-3.9115586 L -14.090070,-6.7318716 z "
           style="fill:#030300;fill-rule:evenodd;stroke-width:1.0000000pt;marker-end:none" />
        <path
           id="path5249"
           d="M -15.215679,4.5567534 L -13.341552,8.2563664 L -11.074678,4.7835114 L -15.215679,4.5567534 z "
           style="fill:#030300;fill-rule:evenodd;stroke-width:1.0000000pt;marker-end:none" />
      </g>
    </marker>
    <marker
       inkscape:stockid="Scissors"
       orient="auto"
       refY="0.0"
       refX="0.0"
       id="Scissors"
       style="overflow:visible">
      <path
         id="schere"
         style="marker-start:none"
         d="M 9.0898857,-3.6061018 C 8.1198849,-4.7769976 6.3697607,-4.7358294 5.0623558,-4.2327734 L -3.1500488,-1.1548705 C -5.5383421,-2.4615840 -7.8983361,-2.0874077 -7.8983361,-2.7236578 C -7.8983361,-3.2209742 -7.4416699,-3.1119800 -7.5100293,-4.4068519 C -7.5756648,-5.6501286 -8.8736064,-6.5699315 -10.100428,-6.4884954 C -11.327699,-6.4958500 -12.599867,-5.5553341 -12.610769,-4.2584343 C -12.702194,-2.9520479 -11.603560,-1.7387447 -10.304005,-1.6532027 C -8.7816644,-1.4265411 -6.0857470,-2.3487593 -4.8210600,-0.082342643 C -5.7633447,1.6559151 -7.4350844,1.6607341 -8.9465707,1.5737277 C -10.201445,1.5014928 -11.708664,1.8611256 -12.307219,3.0945882 C -12.885586,4.2766744 -12.318421,5.9591904 -10.990470,6.3210002 C -9.6502788,6.8128279 -7.8098011,6.1912892 -7.4910978,4.6502760 C -7.2454393,3.4624530 -8.0864637,2.9043186 -7.7636052,2.4731223 C -7.5199917,2.1477623 -5.9728246,2.3362771 -3.2164999,1.0982979 L 5.6763468,4.2330688 C 6.8000164,4.5467672 8.1730685,4.5362646 9.1684433,3.4313614 L -0.051640930,-0.053722219 L 9.0898857,-3.6061018 z M -9.2179159,-5.5066058 C -7.9233569,-4.7838060 -8.0290767,-2.8230356 -9.3743431,-2.4433169 C -10.590861,-2.0196559 -12.145370,-3.2022863 -11.757521,-4.5207817 C -11.530373,-5.6026336 -10.104134,-6.0014137 -9.2179159,-5.5066058 z M -9.1616516,2.5107591 C -7.8108215,3.0096239 -8.0402087,5.2951947 -9.4138723,5.6023681 C -10.324932,5.9187072 -11.627422,5.4635705 -11.719569,4.3902287 C -11.897178,3.0851737 -10.363484,1.9060805 -9.1616516,2.5107591 z " />
    </marker>
    <marker
       inkscape:stockid="Dot_m"
       orient="auto"
       refY="0.0"
       refX="0.0"
       id="Dot_m"
       style="overflow:visible">
      <path
         id="path5167"
         d="M -2.5,-1.0 C -2.5,1.7600000 -4.7400000,4.0 -7.5,4.0 C -10.260000,4.0 -12.5,1.7600000 -12.5,-1.0 C -12.5,-3.7600000 -10.260000,-6.0 -7.5,-6.0 C -4.7400000,-6.0 -2.5,-3.7600000 -2.5,-1.0 z "
         style="fill-rule:evenodd;stroke:#000000;stroke-width:1.0pt;marker-start:none;marker-end:none"
         transform="scale(0.4) translate(7.4, 1)" />
    </marker>
    <marker
       inkscape:stockid="Arrow1Mend"
       orient="auto"
       refY="0.0"
       refX="0.0"
       id="Arrow1Mend"
       style="overflow:visible;">
      <path
         id="path5111"
         d="M 0.0,0.0 L 5.0,-5.0 L -12.5,0.0 L 5.0,5.0 L 0.0,0.0 z "
         style="fill-rule:evenodd;stroke:#000000;stroke-width:1.0pt;marker-start:none;"
         transform="scale(0.4) rotate(180) translate(10,0)" />
    </marker>
    <marker
       inkscape:stockid="Arrow2Lend"
       orient="auto"
       refY="0.0"
       refX="0.0"
       id="Arrow2Lend"
       style="overflow:visible;">
      <path
         id="path5123"
         style="font-size:12.0;fill-rule:evenodd;stroke-width:0.62500000;stroke-linejoin:round;"
         d="M 8.7185878,4.0337352 L -2.2072895,0.016013256 L 8.7185884,-4.0017078 C 6.9730900,-1.6296469 6.9831476,1.6157441 8.7185878,4.0337352 z "
         transform="scale(1.1) rotate(180) translate(1,0)" />
    </marker>
  </defs>
  <sodipodi:namedview
     id="base"
     pagecolor="#ffffff"
     bordercolor="#666666"
     borderopacity="1.0"
     inkscape:pageopacity="0.0"
     inkscape:pageshadow="2"
     inkscape:zoom="1.1230469"
     inkscape:cx="195.17491"
     inkscape:cy="42.150139"
     inkscape:current-layer="layer1"
     showgrid="true"
     inkscape:document-units="px"
     inkscape:grid-bbox="true"
     inkscape:connector-spacing="10"
     inkscape:window-width="1172"
     inkscape:window-height="852"
     inkscape:window-x="140"
     inkscape:window-y="197" />
  <metadata
     id="metadata2164">
    <rdf:RDF>
      <cc:Work
         rdf:about="">
        <dc:format>image/svg+xml</dc:format>
        <dc:type
           rdf:resource="http://purl.org/dc/dcmitype/StillImage" />
      </cc:Work>
    </rdf:RDF>
  </metadata>
  <g
     id="layer1"
     inkscape:label="Layer 1"
     inkscape:groupmode="layer">
    <path
       style="fill:#808000;fill-opacity:0.75;fill-rule:evenodd;stroke:#000000;stroke-width:5.37599754;stroke-linecap:butt;stroke-linejoin:miter;marker-mid:none;stroke-miterlimit:4;stroke-dasharray:10.75199535, 5.37599767;stroke-dashoffset:12.90239443;stroke-opacity:1;display:inline"
       d="M -499.08983,57.345412 L -477.47011,106.54364"
       id="path16126"
       inkscape:connector-type="polyline" />
    <path
       style="fill:#808000;fill-opacity:0.75;fill-rule:evenodd;stroke:#000000;stroke-width:5.08272076;stroke-linecap:round;stroke-linejoin:miter;stroke-miterlimit:4;stroke-dasharray:none;stroke-opacity:1;display:inline"
       d="M -520.09875,105.14093 L -500.53549,56.54136"
       id="path16124"
       inkscape:connector-type="polyline" />
    <path
       style="fill:#808000;fill-opacity:0.75;fill-rule:evenodd;stroke:#000000;stroke-width:3.12282681;stroke-linecap:round;stroke-linejoin:miter;stroke-miterlimit:4;stroke-dasharray:none;stroke-opacity:1;display:inline"
       d="M -561.92114,106.76865 L -576.71517,82.508656"
       id="path16116"
       inkscape:connector-type="polyline" />
    <path
       style="fill:#999999;fill-opacity:0.75;fill-rule:evenodd;stroke:#a5a5a5;stroke-width:3.65189457;stroke-linecap:round;stroke-linejoin:miter;stroke-miterlimit:4;stroke-dasharray:none;stroke-dashoffset:31.18799399;stroke-opacity:1;display:inline"
       d="M -117.43757,79.261402 L -134.2281,50.029762"
       id="path11235"
       inkscape:connector-type="polyline" />
    <path
       style="fill:#808000;fill-opacity:0.75;fill-rule:evenodd;stroke:#000000;stroke-width:4.10063314;stroke-linecap:round;stroke-linejoin:miter;stroke-miterlimit:4;stroke-dasharray:8.20126629,8.20126629;stroke-opacity:1;display:inline;stroke-dashoffset:27.88430538"
       d="M 261.11291,46.700392 L 242.62526,13.226882"
       id="path9273"
       inkscape:connector-type="polyline" />
    <path
       style="fill:#808000;fill-opacity:0.75;fill-rule:evenodd;stroke:#000000;stroke-width:4.62967539;stroke-linecap:round;stroke-linejoin:miter;stroke-miterlimit:4;stroke-dasharray:none;stroke-opacity:1;display:inline"
       d="M 217.77666,47.650908 L 238.7318,10.007274"
       id="path9269"
       inkscape:connector-type="polyline" />
    <path
       style="fill:#808000;fill-opacity:0.75;fill-rule:evenodd;stroke:#000000;stroke-width:4.10063314;stroke-linecap:butt;stroke-linejoin:miter;stroke-miterlimit:4;stroke-dasharray:8.20126629,4.10063314;stroke-opacity:1;display:inline;stroke-dashoffset:9.84151955;marker-mid:none"
       d="M 15.021621,14.980657 L 33.509278,48.454173"
       id="path2179"
       inkscape:connector-type="polyline" />
    <path
       sodipodi:type="arc"
       style="fill:#ff0000;fill-opacity:1"
       id="path2167"
       sodipodi:cx="8"
       sodipodi:cy="12"
       sodipodi:rx="2.909091"
       sodipodi:ry="2.909091"
       d="M 10.909091 12 A 2.909091 2.909091 0 1 1  5.090909,12 A 2.909091 2.909091 0 1 1  10.909091 12 z"
       transform="matrix(2.625,0,0,2.46875,-8.3636361,-17.988635)" />
    <g
       id="g8276"
       style="fill:#ff0000;stroke:#ff0000;stroke-opacity:1"
       transform="matrix(1.1432706,0.761669,-1.2472026,1.0850772,69.880541,-49.656966)"
       inkscape:transform-center-x="-11.082502">
      <path
         style="opacity:1;fill:#ff0000;fill-opacity:1;fill-rule:evenodd;stroke:#ff0000;stroke-width:2.023;stroke-linecap:butt;stroke-linejoin:miter;stroke-miterlimit:4;stroke-dasharray:none;stroke-opacity:1"
         d="M 19.03125,43.46875 L 18.40625,45.375 C 27.682323,48.336306 32.337232,49.822173 34.65625,50.5625 C 35.815759,50.932663 36.366373,51.126209 36.65625,51.21875 C 36.801189,51.26502 36.901265,51.300932 36.9375,51.3125 C 36.955617,51.318284 36.964221,51.311054 36.96875,51.3125 L 37.28125,50.34375 L 37.5625,49.375 C 37.5625,49.375 37.583396,49.391362 19.03125,43.46875 z "
         id="path4128" />
      <path
         style="fill:#ff0000;fill-rule:evenodd;stroke:#ff0000;stroke-width:0.8092pt;marker-start:none;stroke-opacity:1"
         d="M 41.715569,51.769248 L 33.817063,53.494891 L 36.278003,45.786179 L 41.715569,51.769248 z "
         id="path8282" />
    </g>
    <path
       style="fill:#808000;fill-opacity:0.75;fill-rule:evenodd;stroke:#000000;stroke-width:4.10063314;stroke-linecap:round;stroke-linejoin:miter;stroke-miterlimit:4;stroke-dasharray:none;stroke-opacity:1;display:inline"
       d="M 173.93612,53.815989 L 155.44847,20.342479"
       id="path9253"
       inkscape:connector-type="polyline" />
    <path
       sodipodi:type="arc"
       style="fill:#000080;fill-opacity:1"
       id="path9255"
       sodipodi:cx="8"
       sodipodi:cy="12"
       sodipodi:rx="2.909091"
       sodipodi:ry="2.909091"
       d="M 10.909091 12 A 2.909091 2.909091 0 1 1  5.090909,12 A 2.909091 2.909091 0 1 1  10.909091 12 z"
       transform="matrix(2.625,0,0,2.46875,153.99775,25.191365)" />
    <path
       sodipodi:type="arc"
       style="fill:#ff0000;fill-opacity:1"
       id="path9257"
       sodipodi:cx="8"
       sodipodi:cy="12"
       sodipodi:rx="2.909091"
       sodipodi:ry="2.909091"
       d="M 10.909091 12 A 2.909091 2.909091 0 1 1  5.090909,12 A 2.909091 2.909091 0 1 1  10.909091 12 z"
       transform="matrix(-2.625,0,0,-2.46875,177.71272,49.863183)"
       inkscape:transform-center-y="-11.345454"
       inkscape:transform-center-x="-7.6363639" />
    <g
       id="g9259"
       style="fill:#ff0000;stroke:#ff0000;stroke-opacity:1"
       transform="matrix(-0.3541797,-1.3217702,-1.0654077,0.9552688,214.41187,36.775847)">
      <path
         style="opacity:1;fill:#ff0000;fill-opacity:1;fill-rule:evenodd;stroke:#ff0000;stroke-width:2.023;stroke-linecap:butt;stroke-linejoin:miter;stroke-miterlimit:4;stroke-dasharray:none;stroke-opacity:1"
         d="M 19.03125,43.46875 L 18.40625,45.375 C 27.682323,48.336306 32.337232,49.822173 34.65625,50.5625 C 35.815759,50.932663 36.366373,51.126209 36.65625,51.21875 C 36.801189,51.26502 36.901265,51.300932 36.9375,51.3125 C 36.955617,51.318284 36.964221,51.311054 36.96875,51.3125 L 37.28125,50.34375 L 37.5625,49.375 C 37.5625,49.375 37.583396,49.391362 19.03125,43.46875 z "
         id="path9261" />
      <path
         style="fill:#ff0000;fill-rule:evenodd;stroke:#ff0000;stroke-width:0.8092pt;marker-start:none;stroke-opacity:1"
         d="M 41.715569,51.769248 L 33.817063,53.494891 L 36.278003,45.786179 L 41.715569,51.769248 z "
         id="path9263" />
    </g>
    <path
       sodipodi:type="arc"
       style="fill:#000080;fill-opacity:1"
       id="path9267"
       sodipodi:cx="8"
       sodipodi:cy="12"
       sodipodi:rx="2.909091"
       sodipodi:ry="2.909091"
       d="M 10.909091 12 A 2.909091 2.909091 0 1 1  5.090909,12 A 2.909091 2.909091 0 1 1  10.909091 12 z"
       transform="matrix(2.625,0,0,2.46875,218.76726,-22.352271)" />
    <path
       sodipodi:type="arc"
       style="fill:#ff0000;fill-opacity:1"
       id="path9271"
       sodipodi:cx="8"
       sodipodi:cy="12"
       sodipodi:rx="2.909091"
       sodipodi:ry="2.909091"
       d="M 10.909091 12 A 2.909091 2.909091 0 1 1  5.090909,12 A 2.909091 2.909091 0 1 1  10.909091 12 z"
       transform="matrix(2.625,0,0,2.46875,196.63636,20.004091)" />
    <path
       style="fill:#1a1a1a;fill-opacity:0.75;fill-rule:evenodd;stroke:#666666;stroke-width:4.20079088;stroke-linecap:round;stroke-linejoin:miter;stroke-miterlimit:4;stroke-dasharray:8.40158188, 8.40158188;stroke-dashoffset:28.56537838;stroke-opacity:1;display:inline"
       d="M -86.913053,43.964682 L -106.63619,11.036552"
       id="path11219"
       inkscape:connector-type="polyline" />
    <path
       style="fill:#808080;fill-opacity:0.75;fill-rule:evenodd;stroke:#666666;stroke-width:4.82836533;stroke-linecap:round;stroke-linejoin:miter;stroke-miterlimit:4;stroke-dasharray:none;stroke-opacity:1;display:inline"
       d="M -133.66161,47.537222 L -108.98809,12.763592"
       id="path11221"
       inkscape:connector-type="polyline" />
    <path
       sodipodi:type="arc"
       style="fill:#ff0000;fill-opacity:1"
       id="path11223"
       sodipodi:cx="8"
       sodipodi:cy="12"
       sodipodi:rx="2.909091"
       sodipodi:ry="2.909091"
       d="M 10.909091 12 A 2.909091 2.909091 0 1 1  5.090909,12 A 2.909091 2.909091 0 1 1  10.909091 12 z"
       transform="matrix(-4.1936956,0,0,-3.8466797,-51.506163,92.209212)"
       inkscape:transform-center-y="-17.6779"
       inkscape:transform-center-x="-12.199838" />
    <path
       sodipodi:type="arc"
       style="fill:#000080;fill-opacity:1"
       id="path11225"
       sodipodi:cx="8"
       sodipodi:cy="12"
       sodipodi:rx="2.909091"
       sodipodi:ry="2.909091"
       d="M 10.909091 12 A 2.909091 2.909091 0 1 1  5.090909,12 A 2.909091 2.909091 0 1 1  10.909091 12 z"
       transform="matrix(3.1223913,0,0,2.9661413,-132.46972,-24.884862)" />
    <path
       sodipodi:type="arc"
       style="fill:#ff5555;fill-opacity:1"
       id="path11237"
       sodipodi:cx="8"
       sodipodi:cy="12"
       sodipodi:rx="2.909091"
       sodipodi:ry="2.909091"
       d="M 10.909091 12 A 2.909091 2.909091 0 1 1  5.090909,12 A 2.909091 2.909091 0 1 1  10.909091 12 z"
       transform="matrix(-3.9268382,0,0,-3.6930978,-84.298573,124.04039)"
       inkscape:transform-center-y="-16.972092"
       inkscape:transform-center-x="-11.423528" />
    <path
       sodipodi:type="star"
       style="opacity:1;fill:#ffff00;fill-opacity:1;fill-rule:evenodd;stroke:#ff0000;stroke-width:1.79999995;stroke-linecap:butt;stroke-miterlimit:4;stroke-dasharray:none;stroke-dashoffset:0;stroke-opacity:1"
       id="path11239"
       sodipodi:sides="7"
       sodipodi:cx="33.836521"
       sodipodi:cy="50.643478"
       sodipodi:r1="13.591897"
       sodipodi:r2="6.7959485"
       sodipodi:arg1="0.55165498"
       sodipodi:arg2="1.0004539"
       inkscape:flatsided="false"
       inkscape:rounded="0"
       inkscape:randomized="0"
       d="M 45.412173,57.766957 L 37.505792,56.363738 L 35.484463,64.135104 L 31.651995,57.078753 L 24.315818,60.343782 L 27.443191,52.947875 L 20.316458,49.247934 L 28.048695,47.081739 L 26.49798,39.202959 L 33.01255,43.897666 L 38.205574,37.772929 L 38.596872,45.793327 L 46.623182,46.034685 L 40.596553,51.341251 L 45.412173,57.766957 z "
       transform="matrix(0.9011311,0,0,0.8416293,3.1517151,7.349338)" />
    <path
       sodipodi:type="arc"
       style="fill:#000080;fill-opacity:1"
       id="path14154"
       sodipodi:cx="8"
       sodipodi:cy="12"
       sodipodi:rx="2.909091"
       sodipodi:ry="2.909091"
       d="M 10.909091 12 A 2.909091 2.909091 0 1 1  5.090909,12 A 2.909091 2.909091 0 1 1  10.909091 12 z"
       transform="matrix(3.3166015,0,0,3.1191848,-159.34886,9.8194224)" />
    <path
       style="fill:#999999;fill-opacity:0.75;fill-rule:evenodd;stroke:#a5a5a5;stroke-width:4.47646475;stroke-linecap:round;stroke-linejoin:miter;stroke-miterlimit:4;stroke-dasharray:none;stroke-dashoffset:31.18799399;stroke-opacity:1;display:inline"
       d="M -584.63147,148.55484 L -603.71395,109.90777"
       id="path16094"
       inkscape:connector-type="polyline" />
    <path
       style="fill:#808000;fill-opacity:0.75;fill-rule:evenodd;stroke:#000000;stroke-width:3.91992879;stroke-linecap:round;stroke-linejoin:miter;stroke-miterlimit:4;stroke-dasharray:7.83985801, 7.83985801;stroke-dashoffset:26.65551723;stroke-opacity:1;display:inline"
       d="M -580.19513,148.92351 L -565.2991,110.95997"
       id="path16096"
       inkscape:connector-type="polyline" />
    <path
       style="fill:#808000;fill-opacity:0.75;fill-rule:evenodd;stroke:#000000;stroke-width:4.57682514;stroke-linecap:round;stroke-linejoin:miter;stroke-miterlimit:4;stroke-dasharray:none;stroke-opacity:1;display:inline"
       d="M -606.80205,106.71159 L -577.28841,80.590769"
       id="path16098"
       inkscape:connector-type="polyline" />
    <path
       sodipodi:type="arc"
       style="fill:#000080;fill-opacity:1"
       id="path16102"
       sodipodi:cx="8"
       sodipodi:cy="12"
       sodipodi:rx="2.909091"
       sodipodi:ry="2.909091"
       d="M 10.909091 12 A 2.909091 2.909091 0 1 1  5.090909,12 A 2.909091 2.909091 0 1 1  10.909091 12 z"
       transform="matrix(2.625,0,0,2.46875,-599.10677,50.23303)" />
    <g
       id="g16104"
       style="fill:#ff0000;stroke:#ff0000;stroke-opacity:1"
       transform="matrix(1.2173574,-0.5390912,0.7161814,1.692637,-665.88544,61.850859)"
       inkscape:transform-center-y="24.55453"
       inkscape:transform-center-x="-0.042830626">
      <path
         style="opacity:1;fill:#ff0000;fill-opacity:1;fill-rule:evenodd;stroke:#ff0000;stroke-width:2.023;stroke-linecap:butt;stroke-linejoin:miter;stroke-miterlimit:4;stroke-dasharray:none;stroke-opacity:1"
         d="M 19.03125,43.46875 L 18.40625,45.375 C 27.682323,48.336306 32.337232,49.822173 34.65625,50.5625 C 35.815759,50.932663 36.366373,51.126209 36.65625,51.21875 C 36.801189,51.26502 36.901265,51.300932 36.9375,51.3125 C 36.955617,51.318284 36.964221,51.311054 36.96875,51.3125 L 37.28125,50.34375 L 37.5625,49.375 C 37.5625,49.375 37.583396,49.391362 19.03125,43.46875 z "
         id="path16106" />
      <path
         style="fill:#ff0000;fill-rule:evenodd;stroke:#ff0000;stroke-width:0.8092pt;marker-start:none;stroke-opacity:1"
         d="M 41.715569,51.769248 L 33.817063,53.494891 L 36.278003,45.786179 L 41.715569,51.769248 z "
         id="path16108" />
    </g>
    <path
       sodipodi:type="arc"
       style="fill:#ff0000;fill-opacity:1"
       id="path16110"
       sodipodi:cx="8"
       sodipodi:cy="12"
       sodipodi:rx="2.909091"
       sodipodi:ry="2.909091"
       d="M 10.909091 12 A 2.909091 2.909091 0 1 1  5.090909,12 A 2.909091 2.909091 0 1 1  10.909091 12 z"
       transform="matrix(-2.625,0,0,-2.46875,-561.63636,180.16697)"
       inkscape:transform-center-y="-11.345454"
       inkscape:transform-center-x="-7.6363639" />
    <path
       sodipodi:type="arc"
       style="fill:#000080;fill-opacity:1"
       id="path16112"
       sodipodi:cx="8"
       sodipodi:cy="12"
       sodipodi:rx="2.909091"
       sodipodi:ry="2.909091"
       d="M 10.909091 12 A 2.909091 2.909091 0 1 1  5.090909,12 A 2.909091 2.909091 0 1 1  10.909091 12 z"
       transform="matrix(2.625,0,0,2.46875,-626.61657,77.193182)" />
    <path
       sodipodi:type="arc"
       style="fill:#000080;fill-opacity:1"
       id="path16114"
       sodipodi:cx="8"
       sodipodi:cy="12"
       sodipodi:rx="2.909091"
       sodipodi:ry="2.909091"
       d="M 10.909091 12 A 2.909091 2.909091 0 1 1  5.090909,12 A 2.909091 2.909091 0 1 1  10.909091 12 z"
       transform="matrix(2.625,0,0,2.46875,-583.36364,77.193182)" />
    <path
       sodipodi:type="star"
       style="opacity:1;fill:#ffff00;fill-opacity:1;fill-rule:evenodd;stroke:#ff0000;stroke-width:1.79999995;stroke-linecap:butt;stroke-miterlimit:4;stroke-dasharray:none;stroke-dashoffset:0;stroke-opacity:1"
       id="path16118"
       sodipodi:sides="7"
       sodipodi:cx="33.836521"
       sodipodi:cy="50.643478"
       sodipodi:r1="13.591897"
       sodipodi:r2="6.7959485"
       sodipodi:arg1="0.55165498"
       sodipodi:arg2="1.0004539"
       inkscape:flatsided="false"
       inkscape:rounded="0"
       inkscape:randomized="0"
       d="M 45.412173,57.766957 L 37.505792,56.363738 L 35.484463,64.135104 L 31.651995,57.078753 L 24.315818,60.343782 L 27.443191,52.947875 L 20.316458,49.247934 L 28.048695,47.081739 L 26.49798,39.202959 L 33.01255,43.897666 L 38.205574,37.772929 L 38.596872,45.793327 L 46.623182,46.034685 L 40.596553,51.341251 L 45.412173,57.766957 z "
       transform="translate(-511.36087,59.638787)" />
    <path
       sodipodi:type="arc"
       style="fill:#ff0000;fill-opacity:1"
       id="path16120"
       sodipodi:cx="8"
       sodipodi:cy="12"
       sodipodi:rx="2.909091"
       sodipodi:ry="2.909091"
       d="M 10.909091 12 A 2.909091 2.909091 0 1 1  5.090909,12 A 2.909091 2.909091 0 1 1  10.909091 12 z"
       transform="matrix(2.625,0,0,2.46875,-542.96532,79.708538)" />
    <path
       sodipodi:type="arc"
       style="fill:#000080;fill-opacity:1"
       id="path16122"
       sodipodi:cx="8"
       sodipodi:cy="12"
       sodipodi:rx="2.909091"
       sodipodi:ry="2.909091"
       d="M 10.909091 12 A 2.909091 2.909091 0 1 1  5.090909,12 A 2.909091 2.909091 0 1 1  10.909091 12 z"
       transform="matrix(2.625,0,0,2.46875,-520.29855,24.930513)" />
    <g
       id="g16128"
       style="fill:#ff0000;stroke:#ff0000;stroke-opacity:1"
       transform="matrix(0.8040364,-0.5496034,0.4730212,1.7256431,-550.29911,53.325628)"
       inkscape:transform-center-y="25.033336"
       inkscape:transform-center-x="0.03504177">
      <path
         style="opacity:1;fill:#ff0000;fill-opacity:1;fill-rule:evenodd;stroke:#ff0000;stroke-width:2.023;stroke-linecap:butt;stroke-linejoin:miter;stroke-miterlimit:4;stroke-dasharray:none;stroke-opacity:1"
         d="M 19.03125,43.46875 L 18.40625,45.375 C 27.682323,48.336306 32.337232,49.822173 34.65625,50.5625 C 35.815759,50.932663 36.366373,51.126209 36.65625,51.21875 C 36.801189,51.26502 36.901265,51.300932 36.9375,51.3125 C 36.955617,51.318284 36.964221,51.311054 36.96875,51.3125 L 37.28125,50.34375 L 37.5625,49.375 C 37.5625,49.375 37.583396,49.391362 19.03125,43.46875 z "
         id="path16130" />
      <path
         style="fill:#ff0000;fill-rule:evenodd;stroke:#ff0000;stroke-width:0.8092pt;marker-start:none;stroke-opacity:1"
         d="M 41.715569,51.769248 L 33.817063,53.494891 L 36.278003,45.786179 L 41.715569,51.769248 z "
         id="path16132" />
    </g>
    <g
       id="g21826"
       transform="matrix(1.0672684,4.7955324e-2,-4.488748e-2,0.998992,73.310134,-81.805899)">
      <g
         id="g23772"
         transform="translate(-2.5185299,-1.8888974)">
        <path
           id="path20383"
           d="M -138.71875,154.09375 C -138.85242,155.18545 -138.92425,156.67672 -139.3125,158.8125 C -139.70075,160.94828 -140.3916,163.50989 -141.5625,165.875 C -143.9043,170.60522 -147.57626,174.62673 -156.53125,174.59375 L -156.5625,181.5 C -145.25646,181.54164 -138.50886,175.23636 -135.375,168.90625 C -133.80807,165.74119 -132.9966,162.59119 -132.53125,160.03125 C -132.0659,157.47131 -131.91877,155.29496 -131.875,154.9375 L -138.71875,154.09375 z "
           style="fill:#ff0000;fill-opacity:1;fill-rule:evenodd;stroke:none;stroke-width:1;stroke-linecap:butt;stroke-linejoin:miter;stroke-miterlimit:4;stroke-dasharray:none;stroke-opacity:1" />
        <path
           id="path21832"
           d="M -134.32299,146.6061 L -128.92491,159.2932 L -142.62261,157.61601 L -134.32299,146.6061 z "
           style="fill:#ff0404;fill-opacity:1;fill-rule:evenodd;stroke:none;stroke-width:1.38000002pt;marker-start:none" />
      </g>
    </g>
    <path
       sodipodi:type="star"
       style="opacity:1;fill:#ffff00;fill-opacity:1;fill-rule:evenodd;stroke:#ff0000;stroke-width:1.79999995;stroke-linecap:butt;stroke-miterlimit:4;stroke-dasharray:none;stroke-dashoffset:0;stroke-opacity:1"
       id="path24753"
       sodipodi:sides="7"
       sodipodi:cx="33.836521"
       sodipodi:cy="50.643478"
       sodipodi:r1="13.591897"
       sodipodi:r2="6.7959485"
       sodipodi:arg1="0.55165498"
       sodipodi:arg2="1.0004539"
       inkscape:flatsided="false"
       inkscape:rounded="0"
       inkscape:randomized="0"
       d="M 45.412173,57.766957 L 37.505792,56.363738 L 35.484463,64.135104 L 31.651995,57.078753 L 24.315818,60.343782 L 27.443191,52.947875 L 20.316458,49.247934 L 28.048695,47.081739 L 26.49798,39.202959 L 33.01255,43.897666 L 38.205574,37.772929 L 38.596872,45.793327 L 46.623182,46.034685 L 40.596553,51.341251 L 45.412173,57.766957 z "
       transform="translate(228.31801,1.9155489)" />
  </g>
</svg>
