<?xml version="1.0" encoding="UTF-8" standalone="no"?>
<!-- Created with Inkscape (http://www.inkscape.org/) -->
<svg
   xmlns:dc="http://purl.org/dc/elements/1.1/"
   xmlns:cc="http://creativecommons.org/ns#"
   xmlns:rdf="http://www.w3.org/1999/02/22-rdf-syntax-ns#"
   xmlns:svg="http://www.w3.org/2000/svg"
   xmlns="http://www.w3.org/2000/svg"
   xmlns:sodipodi="http://sodipodi.sourceforge.net/DTD/sodipodi-0.dtd"
   xmlns:inkscape="http://www.inkscape.org/namespaces/inkscape"
   width="744.09448819"
   height="1052.3622047"
   id="svg2"
   inkscape:label="Pozadí"
   sodipodi:version="0.32"
   inkscape:version="0.46"
   sodipodi:docname="sipky.svg"
   inkscape:output_extension="org.inkscape.output.svg.inkscape">
  <defs
     id="defs3">
    <inkscape:perspective
       sodipodi:type="inkscape:persp3d"
       inkscape:vp_x="0 : 526.18109 : 1"
       inkscape:vp_y="0 : 1000 : 0"
       inkscape:vp_z="744.09448 : 526.18109 : 1"
       inkscape:persp3d-origin="372.04724 : 350.78739 : 1"
       id="perspective9" />
  </defs>
  <sodipodi:namedview
     id="base"
     pagecolor="#ffffff"
     bordercolor="#666666"
     borderopacity="1.0"
     inkscape:pageopacity="0.0"
     inkscape:pageshadow="2"
     inkscape:zoom="0.35"
     inkscape:cx="876.11509"
     inkscape:cy="520"
     inkscape:document-units="px"
     inkscape:current-layer="layer1"
     showgrid="false"
     inkscape:connector-spacing="0"
     inkscape:window-width="809"
     inkscape:window-height="959"
     inkscape:window-x="6"
     inkscape:window-y="54" />
  <metadata
     id="metadata6">
    <rdf:RDF>
      <cc:Work
         rdf:about="">
        <dc:format>image/svg+xml</dc:format>
        <dc:type
           rdf:resource="http://purl.org/dc/dcmitype/StillImage" />
      </cc:Work>
    </rdf:RDF>
  </metadata>
  <g
     inkscape:label="Vrstva 1"
     inkscape:groupmode="layer"
     id="layer1">
    <path
       style="opacity:1;fill:#000000;fill-opacity:0.75;fill-rule:evenodd;stroke:#000000;stroke-width:13.11031437;stroke-linecap:butt;stroke-linejoin:miter;stroke-miterlimit:4;stroke-dasharray:none;stroke-opacity:1"
       d="M 557.22262,196.38079 L 557.22262,196.38079 L 486.69493,287.28316"
       id="path3178" />
    <path
       style="fill:#000000;fill-opacity:0.75000000000000000;fill-rule:evenodd;stroke:#000000;stroke-width:23.9;stroke-linecap:butt;stroke-linejoin:miter;stroke-opacity:1;opacity:1;stroke-miterlimit:4;stroke-dasharray:none"
       d="M 125.71429,240.93361 L 125.71429,240.93361 L 254.28571,406.6479"
       id="path2392" />
    <path
       sodipodi:type="arc"
       style="opacity:1;fill:#ff0000;fill-opacity:1;fill-rule:evenodd;stroke:#666666;stroke-width:1;stroke-linecap:butt;stroke-linejoin:round;stroke-miterlimit:4;stroke-dasharray:none;stroke-dashoffset:0;stroke-opacity:1"
       id="path2384"
       sodipodi:cx="124.28571"
       sodipodi:cy="239.50504"
       sodipodi:rx="30"
       sodipodi:ry="30"
       d="M 154.28571,239.50504 A 30,30 0 1 1 94.285713,239.50504 A 30,30 0 1 1 154.28571,239.50504 z" />
    <path
       sodipodi:type="star"
       style="opacity:1;fill:#ffff00;fill-opacity:1;fill-rule:evenodd;stroke:#666666;stroke-width:1;stroke-linecap:butt;stroke-linejoin:round;stroke-miterlimit:4;stroke-dasharray:none;stroke-dashoffset:0;stroke-opacity:1"
       id="path2386"
       sodipodi:sides="7"
       sodipodi:cx="251.42857"
       sodipodi:cy="403.79075"
       sodipodi:r1="70.969956"
       sodipodi:r2="35.484978"
       sodipodi:arg1="0.78539816"
       sodipodi:arg2="1.2341971"
       inkscape:flatsided="false"
       inkscape:rounded="0"
       inkscape:randomized="0"
       d="M 301.61191,453.97408 L 263.14852,437.28442 L 243.48246,474.31445 L 232.54943,433.83673 L 191.3366,441.54903 L 216.16672,407.7638 L 184.44122,380.35085 L 226.3369,378.69907 L 227.98868,336.80338 L 255.40163,368.52889 L 289.18687,343.69876 L 281.47456,384.91159 L 321.95228,395.84463 L 284.92225,415.51069 L 301.61191,453.97408 z" />
    <path
       style="opacity:1;fill:#000000;fill-opacity:0.75;fill-rule:evenodd;stroke:#000000;stroke-width:23.89999962;stroke-linecap:butt;stroke-linejoin:miter;stroke-miterlimit:4;stroke-dasharray:none;stroke-opacity:1"
       d="M 513.83328,582.81462 L 513.83328,582.81462 L 385.26186,748.52891"
       id="path3164" />
    <path
       sodipodi:type="arc"
       style="opacity:1;fill:#ff0000;fill-opacity:1;fill-rule:evenodd;stroke:#666666;stroke-width:1;stroke-linecap:butt;stroke-linejoin:round;stroke-miterlimit:4;stroke-dasharray:none;stroke-dashoffset:0;stroke-opacity:1"
       id="path3166"
       sodipodi:cx="124.28571"
       sodipodi:cy="239.50504"
       sodipodi:rx="30"
       sodipodi:ry="30"
       d="M 154.28571,239.50504 A 30,30 0 1 1 94.285713,239.50504 A 30,30 0 1 1 154.28571,239.50504 z"
       transform="matrix(-1,0,0,1,639.54757,341.88101)" />
    <path
       sodipodi:type="star"
       style="opacity:1;fill:#ffff00;fill-opacity:1;fill-rule:evenodd;stroke:#666666;stroke-width:1;stroke-linecap:butt;stroke-linejoin:round;stroke-miterlimit:4;stroke-dasharray:none;stroke-dashoffset:0;stroke-opacity:1"
       id="path3168"
       sodipodi:sides="7"
       sodipodi:cx="251.42857"
       sodipodi:cy="403.79074"
       sodipodi:r1="70.969955"
       sodipodi:r2="35.484978"
       sodipodi:arg1="0.78539816"
       sodipodi:arg2="1.2341971"
       inkscape:flatsided="false"
       inkscape:rounded="0"
       inkscape:randomized="0"
       d="M 301.61191,453.97408 L 263.14852,437.28442 L 243.48246,474.31445 L 232.54943,433.83673 L 191.3366,441.54903 L 216.16672,407.7638 L 184.44122,380.35085 L 226.3369,378.69907 L 227.98868,336.80338 L 255.40163,368.52889 L 289.18687,343.69876 L 281.47456,384.91159 L 321.95228,395.84463 L 284.92225,415.51069 L 301.61191,453.97408 z"
       transform="matrix(-1,0,0,1,639.54757,341.88101)" />
    <path
       style="opacity:1;fill:#000000;fill-opacity:0.75;fill-rule:evenodd;stroke:#000000;stroke-width:13.11031437;stroke-linecap:butt;stroke-linejoin:miter;stroke-miterlimit:4;stroke-dasharray:none;stroke-opacity:1"
       d="M 414.60966,376.32394 L 414.60966,376.32394 L 485.13735,285.42157"
       id="path3170" />
    <path
       sodipodi:type="arc"
       style="opacity:1;fill:#ff0000;fill-opacity:1;fill-rule:evenodd;stroke:#666666;stroke-width:1;stroke-linecap:butt;stroke-linejoin:round;stroke-miterlimit:4;stroke-dasharray:none;stroke-dashoffset:0;stroke-opacity:1"
       id="path3172"
       sodipodi:cx="124.28571"
       sodipodi:cy="239.50504"
       sodipodi:rx="30"
       sodipodi:ry="30"
       d="M 154.28571,239.50504 A 30,30 0 1 1 94.285713,239.50504 A 30,30 0 1 1 154.28571,239.50504 z"
       transform="matrix(0.5485487,0,0,-0.5485487,345.64925,508.48776)" />
    <path
       sodipodi:type="star"
       style="opacity:1;fill:#ffff00;fill-opacity:1;fill-rule:evenodd;stroke:#666666;stroke-width:1;stroke-linecap:butt;stroke-linejoin:round;stroke-miterlimit:4;stroke-dasharray:none;stroke-dashoffset:0;stroke-opacity:1"
       id="path3174"
       sodipodi:sides="7"
       sodipodi:cx="251.42857"
       sodipodi:cy="403.79074"
       sodipodi:r1="70.969955"
       sodipodi:r2="35.484978"
       sodipodi:arg1="0.78539816"
       sodipodi:arg2="1.2341971"
       inkscape:flatsided="false"
       inkscape:rounded="0"
       inkscape:randomized="0"
       d="M 301.61191,453.97408 L 263.14852,437.28442 L 243.48246,474.31445 L 232.54943,433.83673 L 191.3366,441.54903 L 216.16672,407.7638 L 184.44122,380.35085 L 226.3369,378.69907 L 227.98868,336.80338 L 255.40163,368.52889 L 289.18687,343.69876 L 281.47456,384.91159 L 321.95228,395.84463 L 284.92225,415.51069 L 301.61191,453.97408 z"
       transform="matrix(0.5485487,0,0,-0.5485487,345.64925,508.48776)" />
    <path
       sodipodi:type="arc"
       style="opacity:1;fill:#000000;fill-opacity:1;fill-rule:evenodd;stroke:#666666;stroke-width:1;stroke-linecap:butt;stroke-linejoin:round;stroke-miterlimit:4;stroke-dasharray:none;stroke-dashoffset:0;stroke-opacity:1"
       id="path3180"
       sodipodi:cx="124.28571"
       sodipodi:cy="239.50504"
       sodipodi:rx="30"
       sodipodi:ry="30"
       d="M 154.28571,239.50504 A 30,30 0 1 1 94.285713,239.50504 A 30,30 0 1 1 154.28571,239.50504 z"
       transform="matrix(-0.5485487,0,0,0.5485487,626.18303,64.216969)" />
    <path
       style="opacity:1;fill:#000000;fill-opacity:0.75;fill-rule:evenodd;stroke:#000000;stroke-width:13.11031437;stroke-linecap:butt;stroke-linejoin:miter;stroke-miterlimit:4;stroke-dasharray:none;stroke-opacity:1"
       d="M 174.59515,713.81918 L 174.59515,713.81918 L 245.12284,804.72155"
       id="path3184" />
    <path
       style="opacity:1;fill:#000000;fill-opacity:0.75;fill-rule:evenodd;stroke:#000000;stroke-width:13.11031437;stroke-linecap:butt;stroke-linejoin:miter;stroke-miterlimit:4;stroke-dasharray:none;stroke-opacity:1"
       d="M 111.55066,808.04805 L 111.55066,808.04805 L 182.07835,717.14568"
       id="path3186" />
    <path
       sodipodi:type="arc"
       style="opacity:1;fill:#ff0000;fill-opacity:1;fill-rule:evenodd;stroke:#666666;stroke-width:1;stroke-linecap:butt;stroke-linejoin:round;stroke-miterlimit:4;stroke-dasharray:none;stroke-dashoffset:0;stroke-opacity:1"
       id="path3188"
       sodipodi:cx="124.28571"
       sodipodi:cy="239.50504"
       sodipodi:rx="30"
       sodipodi:ry="30"
       d="M 154.28571,239.50504 A 30,30 0 1 1 94.285713,239.50504 A 30,30 0 1 1 154.28571,239.50504 z"
       transform="matrix(0.5485487,0,0,-0.5485487,108.30454,854.49759)" />
    <path
       sodipodi:type="star"
       style="opacity:1;fill:#ffff00;fill-opacity:1;fill-rule:evenodd;stroke:#666666;stroke-width:1;stroke-linecap:butt;stroke-linejoin:round;stroke-miterlimit:4;stroke-dasharray:none;stroke-dashoffset:0;stroke-opacity:1"
       id="path3190"
       sodipodi:sides="7"
       sodipodi:cx="251.42857"
       sodipodi:cy="403.79074"
       sodipodi:r1="70.969955"
       sodipodi:r2="35.484978"
       sodipodi:arg1="0.78539816"
       sodipodi:arg2="1.2341971"
       inkscape:flatsided="false"
       inkscape:rounded="0"
       inkscape:randomized="0"
       d="M 301.61191,453.97408 L 263.14852,437.28442 L 243.48246,474.31445 L 232.54943,433.83673 L 191.3366,441.54903 L 216.16672,407.7638 L 184.44122,380.35085 L 226.3369,378.69907 L 227.98868,336.80338 L 255.40163,368.52889 L 289.18687,343.69876 L 281.47456,384.91159 L 321.95228,395.84463 L 284.92225,415.51069 L 301.61191,453.97408 z"
       transform="matrix(0.5485487,0,0,-0.5485487,105.4474,1037.3547)" />
    <path
       sodipodi:type="arc"
       style="opacity:1;fill:#000000;fill-opacity:1;fill-rule:evenodd;stroke:#666666;stroke-width:1;stroke-linecap:butt;stroke-linejoin:round;stroke-miterlimit:4;stroke-dasharray:none;stroke-dashoffset:0;stroke-opacity:1"
       id="path3192"
       sodipodi:cx="124.28571"
       sodipodi:cy="239.50504"
       sodipodi:rx="30"
       sodipodi:ry="30"
       d="M 154.28571,239.50504 A 30,30 0 1 1 94.285713,239.50504 A 30,30 0 1 1 154.28571,239.50504 z"
       transform="matrix(0.5485487,0,0,0.5485487,42.7776,675.94107)" />
  </g>
</svg>
