/* XPM */
static char *apply[] = {
/* columns rows colors chars-per-pixel */
"22 22 47 1",
"  c #535353535353",
". c #565656565656",
"X c #585858585858",
"o c #5B5B5B5B5B5B",
"O c gray37",
"+ c #5F5F5F5F5F5F",
"@ c #606060606060",
"# c #626262626262",
"$ c gray39",
"% c #646464646464",
"& c #656565656565",
"* c gray40",
"= c #676767676767",
"- c #686868686868",
"; c DimGray",
": c #6A6A6A6A6A6A",
"> c gray42",
", c #6D6D6D6D6D6D",
"< c gray44",
"1 c #717171717171",
"2 c gray45",
"3 c #747474747474",
"4 c #767676767676",
"5 c #797979797979",
"6 c gray48",
"7 c #7B7B7B7B7B7B",
"8 c #7C7C7C7C7C7C",
"9 c gray49",
"0 c #7F7F7F7F7F7F",
"q c gray51",
"w c #838383838383",
"e c #848484848484",
"r c gray52",
"t c gray53",
"y c #898989898989",
"u c #8B8B8B8B8B8B",
"i c gray55",
"p c #8E8E8E8E8E8E",
"a c gray56",
"s c #909090909090",
"d c #929292929292",
"f c gray58",
"g c #989898989898",
"h c #9B9B9B9B9B9B",
"j c #A4A4A4A4A4A4",
"k c #B1B1B1B1B1B1",
"l c None",
/* pixels */
"llllllllllllllllllllll",
"llllllllllllllllllllll",
"llllllllllllllllllllll",
"llllllllllllllllllll34",
"<lllllllllllllllll<<<l",
",,llllllllllllll,3,,ll",
">8>lllllllllll:1hu>lll",
"l9h-llllllll-,sk5;llll",
"l&jp&lllll&;rjj2*lllll",
"l$tgw$ll#*8fgp*$llllll",
"ll2dd0@$5addy%llllllll",
"ll@ppprippp8@lllllllll",
"lloquuuuuu5ollllllllll",
"llX<ttttt,Xlllllllllll",
"lllOeeee=.llllllllllll",
"lll 709+ lllllllllllll",
"lll ,6o llllllllllllll",
"lllloo lllllllllllllll",
"llll lllllllllllllllll",
"llllllllllllllllllllll",
"llllllllllllllllllllll",
"llllllllllllllllllllll"
};
