/* XPM */
static char *configure[] = {
/* columns rows colors chars-per-pixel */
"22 22 20 1",
"  c black",
". c gray19",
"X c #585858585858",
"o c #646464646464",
"O c gray47",
"+ c #808080808080",
"@ c #A0A0A0A0A0A0",
"# c #B7B7B7B7B7B7",
"$ c gray72",
"% c gray76",
"& c #C3C3C3C3C3C3",
"* c gray80",
"= c gray81",
"- c #D8D8D8D8D8D8",
"; c gray86",
": c gainsboro",
"> c #E7E7E7E7E7E7",
", c gray93",
"< c gray100",
"1 c None",
/* pixels */
"1111111111111111111111",
"1111111111111111111111",
"11111       +111111111",
"11111 XX:=$@   1111111",
"11111 *$XX::=$@ 111111",
"111111 <*$XX:=$@ 11111",
"1   111  <*$X:-@ @1111",
"1 <:  111  <.:-=@ 1111",
"1 <,:%  111.%::-@ 1111",
"1 o<,::%  .%:::-@ 1111",
"1 :o<<,:::::::;=@@  11",
"1 ::oO<<,,:::,>&=&@@ 1",
"11 <:<oO<<<<<>=>;=&#@1",
"111 <::<ooooO@<<>;=&#1",
"1111  <:&&&&@ooO<<;=&1",
"111111    @:&&@@oO<<=1",
"1111111111   @&:&@oO<1",
"1111111111111  :<:&@o1",
"111111111111111  :<:&1",
"11111111111111111  :<1",
"1111111111111111111  1",
"1111111111111111111111"
};
