/* XPM */
static char *connect_creating[] = {
/* columns rows colors chars-per-pixel */
"22 22 18 1",
"  c black",
". c #025B025B025B",
"X c gray3",
"o c #59C359C359C3",
"O c #71DA71DA71DA",
"+ c #825582558255",
"@ c #A2DFA2DFA2DF",
"# c #AAC7AAC7AAC7",
"$ c #BBF8BBF8BBF8",
"% c #C400C400C400",
"& c #DC83DC83DC83",
"* c gray87",
"= c #E2D0E2D0E2D0",
"- c #E48BE48BE48B",
"; c #E6E6E6E6E6E6",
": c #EC93EC93EC93",
"> c gray100",
", c None",
/* pixels */
",,,,,,,,,,,,,,,,,===,,",
",,,,,,,,,,,,,,===###O,",
",,,,,,,,,,,===####OO,,",
",,,,,,,,,,,######O,,,,",
",,,,,,,,,,,O####O,,,,,",
",,,,,,,,,,,,O####,,,,,",
",,,,,,,,,,,,,O####,,,,",
",,,,,,,,,,,,,,O####,,,",
",,,,,,  ,,,,,=######,,",
",,,,, >%.,,==####OOO,,",
",,,,.>*:%.=###OOO,,,,,",
",,,.>***;% OOO,,,,,,,,",
",,,.$****-% ,,,,,,,,,,",
",,, +$****&% ,,,,,,,,,",
",,, o+$*****% ,,,,,,,,",
",,,,o%+$***%+.,,,,,,,,",
",,,, >@+$*%+o ,,,,,,,,",
",,, >@+o+++o ,,,,,,,,,",
",, >@X  o+o ,,,,,,,,,,",
", >@ ,,,   ,,,,,,,,,,,",
" >@ ,,,,,,,,,,,,,,,,,,",
">@ ,,,,,,,,,,,,,,,,,,,"
};
