/* XPM */
static char *down[] = {
/* columns rows colors chars-per-pixel */
"22 22 62 1",
"  c #006A006A006A",
". c #010101010101",
"X c #2D1C2D1C2D1C",
"o c #2E1D2E1D2E1D",
"O c #326132613261",
"+ c #388638863886",
"@ c #38F038F038F0",
"# c #420B420B420B",
"$ c #4B914B914B91",
"% c #500050005000",
"& c #52D652D652D6",
"* c #557555755575",
"= c #593B593B593B",
"- c #614961496149",
"; c #671967196719",
": c #6A076A076A07",
"> c #6C3B6C3B6C3B",
", c #6D4D6D4D6D4D",
"< c #6E756E756E75",
"1 c #709770977097",
"2 c #70F370F370F3",
"3 c #730B730B730B",
"4 c #76EC76EC76EC",
"5 c #77A177A177A1",
"6 c #785578557855",
"7 c #7E307E307E30",
"8 c #816281628162",
"9 c #836E836E836E",
"0 c #85A185A185A1",
"q c #90FC90FC90FC",
"w c #944E944E944E",
"e c #96B296B296B2",
"r c #977A977A977A",
"t c #9E299E299E29",
"y c #A67DA67DA67D",
"u c #A770A770A770",
"i c #A8CEA8CEA8CE",
"p c #A97AA97AA97A",
"a c #ADE0ADE0ADE0",
"s c #B064B064B064",
"d c #B302B302B302",
"f c #B3B1B3B1B3B1",
"g c #B513B513B513",
"h c #B689B689B689",
"j c #B88BB88BB88B",
"k c #BAE9BAE9BAE9",
"l c #BBBBBBBBBBBB",
"z c #BD01BD01BD01",
"x c #C4F1C4F1C4F1",
"c c #CB43CB43CB43",
"v c #D42AD42AD42A",
"b c #D626D626D626",
"n c #D848D848D848",
"m c #D89FD89FD89F",
"M c #DD22DD22DD22",
"N c #E1C0E1C0E1C0",
"B c #E2D6E2D6E2D6",
"V c #E95EE95EE95E",
"C c #E98DE98DE98D",
"Z c #EBDDEBDDEBDD",
"A c #FD4CFD4CFD4C",
"S c None",
/* pixels */
"SSSSSSSSSSSSSSSSSSSSSS",
"SSSSSSSSSSSSSSSSSSSSSS",
"SSSSSSSSSSSSSSSSSSSSSS",
"SSSSSSSXo#$@XXXSSSSSSS",
"SSSSSSSXhMCCN- SSSSSSS",
"SSSSSSSXVkagz& SSSSSSS",
"SSSSSSSXAmr2w& SSSSSSS",
"SSSSSSSXABy;u& SSSSSSS",
"SSSSSSSXAvt:s* SSSSSSS",
"SSSSSSS+Ad81e= SSSSSSS",
"SSXOOOOOni04q<OOOOOOSS",
"SSS >pljc8<,q397>% SSS",
"SSSS >Zxy6<39qf7% SSSS",
"SSSSS >ACy53qf7% SSSSS",
"SSSSSS.>ACyyf7% SSSSSS",
"SSSSSSS >Abf7% SSSSSSS",
"SSSSSSSS >Z7% SSSSSSSS",
"SSSSSSSSS >% SSSSSSSSS",
"SSSSSSSSSS  SSSSSSSSSS",
"SSSSSSSSSSSSSSSSSSSSSS",
"SSSSSSSSSSSSSSSSSSSSSS",
"SSSSSSSSSSSSSSSSSSSSSS"
};
