	/* XPM */
static char * editdelete_xpm[] = {
"22 22 51 1",
" 	g None",
".	g #535353",
"+	g #4A4A4A",
"@	g #424242",
"#	g #3A3A3A",
"$	g #313131",
"%	g #292929",
"&	g #212121",
"*	g #181818",
"=	g #101010",
"-	g #080808",
";	g #000000",
">	g #4C4C4C",
",	g #DEDEDE",
"'	g #B4B4B4",
")	g #989898",
"!	g #464646",
"~	g #FFFFFF",
"{	g #141414",
"]	g #C9C9C9",
"^	g #3F3F3F",
"/	g #393939",
"(	g #3E3E3E",
"_	g #333333",
":	g #2C2C2C",
"<	g #FDFDFD",
"[	g #808080",
"}	g #262626",
"|	g #1F1F1F",
"1	g #191919",
"2	g #D1D1D1",
"3	g #FCFCFC",
"4	g #C3C3C3",
"5	g #282828",
"6	g #4D4D4D",
"7	g #131313",
"8	g #E0E0E0",
"9	g #DDDDDD",
"0	g #D0D0D0",
"a	g #0C0C0C",
"b	g #060606",
"c	g #FEFEFE",
"d	g #FBFBFB",
"e	g #E8E8E8",
"f	g #FAFAFA",
"g	g #020202",
"h	g #C4C4C4",
"i	g #F6F6F6",
"j	g #A3A3A3",
"k	g #CDCDCD",
"l	g #BABABA",
"   .+@#$%&*=-;;       ",
"   >,,,,,,,,';);      ",
"   !,~~~~~~~,{]);     ",
"   ^,~~~~~~~~%~]);    ",
"   /,~~~~~~~~(,~]);   ",
"   _,~~~~~~~~.(%{;;   ",
"   :,~~~~~~~~<,,,[;   ",
"   },~~~~~~~~<~~~,;   ",
"   |,~~~~~~~<~~~~,;   ",
"   1,~2~~~~3~~42~,;   ",
"   1,~56~~~~~465~,;   ",
"   7,~85693~4650~,;   ",
"   a,~~85699650~~,;   ",
"   b,~~c85665~~~~,;   ",
"   b,~~cd9664e~~~,;   ",
"   ;,~<f9655648~~,;   ",
"   ;,cf96500564~~,;   ",
"   g,f9650~~h564~,;   ",
"   ;,ij5k~~~~l5j~,;   ",
"   ;,~~~~~~~~~~~~,;   ",
"   ;,,,,,,,,,,,,,,;   ",
"   ;;;;;;;;;;;;;;;;   "};
