/* XPM */
static char *edit[] = {
/* columns rows colors chars-per-pixel */
"22 22 127 2",
"   c black",
".  c #040404040404",
"X  c #090909090909",
"o  c gray5",
"O  c #0E0E0E0E0E0E",
"+  c #101010101010",
"@  c #151515151515",
"#  c #161616161616",
"$  c gray9",
"%  c #28D628D628D6",
"&  c #2A732A732A73",
"*  c #332233223322",
"=  c #480B480B480B",
"-  c #4DB84DB84DB8",
";  c #4F364F364F36",
":  c #505050505050",
">  c #536C536C536C",
",  c gray33",
"<  c #569456945694",
"1  c #574357435743",
"2  c #584158415841",
"3  c #5B8A5B8A5B8A",
"4  c gray37",
"5  c #5FA25FA25FA2",
"6  c #606060606060",
"7  c #626262626262",
"8  c gray39",
"9  c gray40",
"0  c #674167416741",
"q  c #688068806880",
"w  c DimGray",
"e  c #6AD76AD76AD7",
"r  c gray42",
"t  c #6C076C076C07",
"y  c #6D6D6D6D6D6D",
"u  c gray43",
"i  c #707770777077",
"p  c #739D739D739D",
"a  c #747474747474",
"s  c #767676767676",
"d  c #774D774D774D",
"f  c gray47",
"g  c #7A2C7A2C7A2C",
"h  c #7B757B757B75",
"j  c #7E647E647E64",
"k  c #7F637F637F63",
"l  c #808080808080",
"z  c gray51",
"x  c #838383838383",
"c  c #869986998699",
"v  c #878987898789",
"b  c #895B895B895B",
"n  c #8AB58AB58AB5",
"m  c #8EDA8EDA8EDA",
"M  c #902490249024",
"N  c #923F923F923F",
"B  c #940094009400",
"V  c #946794679467",
"C  c #959D959D959D",
"Z  c #961E961E961E",
"A  c #98CB98CB98CB",
"S  c #997D997D997D",
"D  c #9AA79AA79AA7",
"F  c #9B819B819B81",
"G  c #9DCB9DCB9DCB",
"H  c #9E409E409E40",
"J  c #9F5E9F5E9F5E",
"K  c #A066A066A066",
"L  c #A1BDA1BDA1BD",
"P  c #A3AFA3AFA3AF",
"I  c #A4B9A4B9A4B9",
"U  c #A54FA54FA54F",
"Y  c #A629A629A629",
"T  c #A773A773A773",
"R  c #A87EA87EA87E",
"E  c #A981A981A981",
"W  c #AA59AA59AA59",
"Q  c #AB8EAB8EAB8E",
"!  c #ACF8ACF8ACF8",
"~  c #AD94AD94AD94",
"^  c #AE3DAE3DAE3D",
"/  c #B086B086B086",
"(  c #B20CB20CB20C",
")  c #B297B297B297",
"_  c #B444B444B444",
"`  c #BA12BA12BA12",
"'  c #BA8DBA8DBA8D",
"]  c #BC56BC56BC56",
"[  c #BD9BBD9BBD9B",
"{  c #BEA4BEA4BEA4",
"}  c #BFF2BFF2BFF2",
"|  c #C1FFC1FFC1FF",
" . c #C2B4C2B4C2B4",
".. c #C44CC44CC44C",
"X. c #C642C642C642",
"o. c #C6DFC6DFC6DF",
"O. c gray79",
"+. c #CAC8CAC8CAC8",
"@. c #CDA1CDA1CDA1",
"#. c #CF9ACF9ACF9A",
"$. c #D0FBD0FBD0FB",
"%. c #D1E0D1E0D1E0",
"&. c #D3CFD3CFD3CF",
"*. c #D5D5D5D5D5D5",
"=. c #D6D2D6D2D6D2",
"-. c #D8A3D8A3D8A3",
";. c #DC5EDC5EDC5E",
":. c #E1FFE1FFE1FF",
">. c #E4CFE4CFE4CF",
",. c #E5A8E5A8E5A8",
"<. c #E815E815E815",
"1. c #EA0DEA0DEA0D",
"2. c #EAC2EAC2EAC2",
"3. c #EBF1EBF1EBF1",
"4. c #EE4AEE4AEE4A",
"5. c #EFF5EFF5EFF5",
"6. c #F16BF16BF16B",
"7. c #F1C5F1C5F1C5",
"8. c #F2C6F2C6F2C6",
"9. c #F455F455F455",
"0. c #F4B7F4B7F4B7",
"q. c #F710F710F710",
"w. c #F829F829F829",
"e. c #FAA2FAA2FAA2",
"r. c gray99",
"t. c #FEFBFEFBFEFB",
"y. c None",
/* pixels */
"y.y.c c z j h d a i y w 9 7 5 3 2 , : y.5 ] ",
"y.y.c O.O.O.O.O.O.O.O.O.O.O.O.O.O.| ; 5 ] 1.",
"y.y.x O.t.t.t.t.t.t.=.t.t.t.t.t.t.{ 5 R 1.W ",
"y.y.l O.t.t.t.t.t.t.=.t.t.t.t.t.r.q R :.W H ",
"y.y.j O.t.t.t.t.t.t.=.t.t.t.t.r.e R :.W S F ",
"y.y.h O.=.=.=.=.=.=.=.=.=.=.%.i R -.W S F G ",
"y.y.f O.t.t.t.t.t.t.=.t.t.r.c R -.W D F S k ",
"y.y.s O.t.t.t.t.t.t.=.t.r.m K -.W A F S d 5 ",
"y.y.p O.t.t.t.t.t.t.=.r.X.[ -.W F F S g 3 O ",
"y.y.i O.=.=.=.=.=.=.*.X.>.2.~ A F S d 3 O y.",
"y.y.u O.t.t.t.t.t.t.%.-.0.%.I V A g 2 O y.y.",
"y.y.r O.t.t.t.t.t.q.X.2.:.~ b v p 2 O y.y.y.",
"y.y.q O.t.t.t.t.e.9.-.4.X.B p 5 1 O @ y.y.y.",
"y.y.9 O.=.=.=.$.#.X.<. .B q 5 ; O t # y.y.y.",
"y.y.8 O.t.e.e.q.6.;.%.Z q ; & * v h $ y.y.y.",
"y.y.6 O.t.w.9.4.0 V C < - * n N J N @ y.y.y.",
"y.y.4 O.e.q.7.( 0 % * > n V P _ [ L + y.y.y.",
"y.y.3 O.@.+.o.0 & * ( d v S P R ^ Y o y.y.y.",
"y.y.2 O.8.5.,.= ( M j I ` @.&.$.@.U X y.y.y.",
"y.y.< O.3.3.,.$./ R D ..@.#.%.@.+.P . y.y.y.",
"y.y.> | } [ ' ) T U W ! ! Q E T U L   y.y.y.",
"y.y.                                  y.y.y."
};
