/* XPM */
static char *editpaste[] = {
/* columns rows colors chars-per-pixel */
"22 22 135 2",
"   c black",
".  c #020202020202",
"X  c #086108610861",
"o  c #0EE90EE90EE9",
"O  c #111B111B111B",
"+  c gray7",
"@  c #144E144E144E",
"#  c #15DC15DC15DC",
"$  c #184918491849",
"%  c #19A919A919A9",
"&  c #1B1B1B1B1B1B",
"*  c #1E1E1E1E1E1E",
"=  c #203020302030",
"-  c #212821282128",
";  c #222222222222",
":  c #24C624C624C6",
">  c #25FC25FC25FC",
",  c #289D289D289D",
"<  c #2B952B952B95",
"1  c #2D442D442D44",
"2  c #2E022E022E02",
"3  c #315131513151",
"4  c #358E358E358E",
"5  c #376937693769",
"6  c #3A993A993A99",
"7  c #45A545A545A5",
"8  c #494949494949",
"9  c #4BA64BA64BA6",
"0  c #4DAE4DAE4DAE",
"q  c gray31",
"w  c #52C652C652C6",
"e  c #559455945594",
"r  c #565B565B565B",
"t  c #598059805980",
"y  c #5AA75AA75AA7",
"u  c #5B5B5B5B5B5B",
"i  c gray37",
"p  c #62D762D762D7",
"a  c gray39",
"s  c #656565656565",
"d  c #663E663E663E",
"f  c #677867786778",
"g  c #6A6A6A6A6A6A",
"h  c #6C7D6C7D6C7D",
"j  c gray43",
"k  c #6F8D6F8D6F8D",
"l  c gray44",
"z  c #716671667166",
"x  c #727872787278",
"c  c #747474747474",
"v  c #753E753E753E",
"b  c #767676767676",
"n  c #78E178E178E1",
"m  c #797979797979",
"M  c #7A7C7A7C7A7C",
"N  c #7C567C567C56",
"B  c #7E7E7E7E7E7E",
"V  c #808080808080",
"C  c #818181818181",
"Z  c gray51",
"A  c #867A867A867A",
"S  c #883088308830",
"D  c #898989898989",
"F  c #8A528A528A52",
"G  c gray55",
"H  c #8E8E8E8E8E8E",
"J  c #939393939393",
"K  c gray58",
"L  c #956295629562",
"P  c gray59",
"I  c #975F975F975F",
"U  c #989898989898",
"Y  c gray60",
"T  c #9A9A9A9A9A9A",
"R  c #9D6B9D6B9D6B",
"E  c #9E909E909E90",
"W  c #9FDA9FDA9FDA",
"Q  c #A2A2A2A2A2A2",
"!  c #A4B4A4B4A4B4",
"~  c gray65",
"^  c #A9A9A9A9A9A9",
"/  c #AAAAAAAAAAAA",
"(  c #AEC8AEC8AEC8",
")  c #AFAFAFAFAFAF",
"_  c #B127B127B127",
"`  c #B185B185B185",
"'  c #B4FAB4FAB4FA",
"]  c #B5A4B5A4B5A4",
"[  c #B6B6B6B6B6B6",
"{  c #B776B776B776",
"}  c #B8DAB8DAB8DA",
"|  c #BB79BB79BB79",
" . c #BDE4BDE4BDE4",
".. c gray",
"X. c #C021C021C021",
"o. c #C09AC09AC09A",
"O. c #C159C159C159",
"+. c #C5CFC5CFC5CF",
"@. c #C6C6C6C6C6C6",
"#. c #C9C5C9C5C9C5",
"$. c #CCA6CCA6CCA6",
"%. c #CDCDCDCDCDCD",
"&. c #CE52CE52CE52",
"*. c #D0D0D0D0D0D0",
"=. c #D1AAD1AAD1AA",
"-. c gray83",
";. c #D8CCD8CCD8CC",
":. c #DBD5DBD5DBD5",
">. c #DFA7DFA7DFA7",
",. c #E142E142E142",
"<. c #E213E213E213",
"1. c #E3CDE3CDE3CD",
"2. c #E51EE51EE51E",
"3. c #E6E6E6E6E6E6",
"4. c #E7C2E7C2E7C2",
"5. c #E8C3E8C3E8C3",
"6. c #EA2CEA2CEA2C",
"7. c #EB14EB14EB14",
"8. c #EBAEEBAEEBAE",
"9. c #ED08ED08ED08",
"0. c #EDDCEDDCEDDC",
"q. c #EEEEEEEEEEEE",
"w. c #EFDCEFDCEFDC",
"e. c #F180F180F180",
"r. c #F2B9F2B9F2B9",
"t. c #F3D8F3D8F3D8",
"y. c #F55DF55DF55D",
"u. c #F602F602F602",
"i. c #F730F730F730",
"p. c #F831F831F831",
"a. c #F902F902F902",
"s. c #FC31FC31FC31",
"d. c #FDE0FDE0FDE0",
"f. c gray100",
"g. c None",
/* pixels */
"g.g.g.g.g.g.g.# 4 d w 9 g.g.g.g.g.g.g.g.g.g.",
"g.. . . . . X = v d.+.E 2 . . . . . . g.g.g.",
". 7.f.q.q.q.q.9 f.y.9.#.L 7 +.#.$.-.:.5 g.g.",
". f.~ ~ ~ U v f.=.+._ ! L x 7 C S C G > g.g.",
". q.Q ^ ] ~ 6 1 : : - : - - # p x j M ; g.g.",
". q.Y E / ../ T Z h i s u s i u s h T 2 g.g.",
". 7.' ) / R E P B 3 3 3 , - $ O & & h * g.g.",
". 3.J W ! Q T P B 3 f.f.f.f.f.f.3 D + * g.g.",
". 1.[ / W I F m f 3 f.f.f.f.f.f.6 f.#.+ g.g.",
". >.P E E / ( K Z 3 f.Z #.Z @.f.7 #.f.D + g.",
". :.T ~ E H Z Z j 3 f.f.f.f.f.f.7 7 6 3 + g.",
". ;.H P T ~ Q A z 3 f.Z y #.Z #.s.@.! c + g.",
". -.~ / ~ A A A z 3 f.f.f.f.f.s.p.y.8.| + g.",
". *.B A F T P B g < f.y Z @.Z e n I v =.+ g.",
". %.T P A B M b a > f.f.s.a.u.r.w.9.6.$.+ g.",
". #.A H H A Z M f = f.t o.N r { F z k +.+ g.",
". @.B Z B M l g t % f.i.t.e.0.8.4.1.,.X.+ g.",
". @.Z A A V V i q @ f.M e { F z 0 F h | + g.",
". / j j j j f r 8 o f.w.8.5.2.<.>.:.;.' + g.",
"g.. . . . . . . + & =.&.#.+.O. .} ] ` ( + g.",
"g.g.g.g.g.g.g.g.g.+ + + + + + + + + +     g.",
"g.g.g.g.g.g.g.g.g.g.g.g.g.g.g.g.g.g.g.g.g.g."
};
