/* XPM */
static char *editcopy[] = {
/* columns rows colors chars-per-pixel */
"22 22 71 1",
"  c black",
". c gray7",
"X c #313131313131",
"o c #3BA53BA53BA5",
"O c #469346934693",
"+ c gray30",
"@ c #4E7F4E7F4E7F",
"# c #564856485648",
"$ c #573157315731",
"% c #59F359F359F3",
"& c #5BA85BA85BA8",
"* c #6D046D046D04",
"= c #701270127012",
"- c #71D671D671D6",
"; c #747474747474",
": c #767876787678",
"> c #79B379B379B3",
", c #7B857B857B85",
"< c #7D577D577D57",
"1 c gray51",
"2 c #898989898989",
"3 c #8B378B378B37",
"4 c #97AB97AB97AB",
"5 c #A4A4A4A4A4A4",
"6 c #AF5BAF5BAF5B",
"7 c #B1E2B1E2B1E2",
"8 c #B5A4B5A4B5A4",
"9 c #B63BB63BB63B",
"0 c #B7FBB7FBB7FB",
"q c #BA1BBA1BBA1B",
"w c #BBB7BBB7BBB7",
"e c #BE0ABE0ABE0A",
"r c #C0FAC0FAC0FA",
"t c #C19BC19BC19B",
"y c #C263C263C263",
"u c #C3C3C3C3C3C3",
"i c #C625C625C625",
"p c #C6C8C6C8C6C8",
"a c gray79",
"s c #CA7ECA7ECA7E",
"d c #CD22CD22CD22",
"f c #CED7CED7CED7",
"g c #D24CD24CD24C",
"h c #D94CD94CD94C",
"j c #DCA4DCA4DCA4",
"k c gray87",
"l c #DF95DF95DF95",
"z c #E21BE21BE21B",
"x c #E2EDE2EDE2ED",
"c c #E4BFE4BFE4BF",
"v c #E628E628E628",
"b c #E817E817E817",
"n c #E936E936E936",
"m c #EA9EEA9EEA9E",
"M c #EBFFEBFFEBFF",
"N c #EC70EC70EC70",
"B c #EDF8EDF8EDF8",
"V c #F015F015F015",
"C c #F0E7F0E7F0E7",
"Z c #F205F205F205",
"A c #F38BF38BF38B",
"S c #F4A9F4A9F4A9",
"D c #F611F611F611",
"F c #F730F730F730",
"G c #F801F801F801",
"H c #F902F902F902",
"J c #F9D3F9D3F9D3",
"K c #FC5AFC5AFC5A",
"L c #FD78FD78FD78",
"P c gray100",
"I c None",
/* pixels */
"IIIIIIIIIIIIIIIIIIIIII",
"I.........IIIIIIIIIIII",
"I.PPPPPPX2.IIIIIIIIIII",
"I.PPPPPPoPa.IIIIIIIIII",
"I.P1a1pPOaP2.IIIIIIIII",
"I.PPPPPPOOoX.IIIIIIIII",
"I.P1&a1aLp5;......IIII",
"I.PPPPPKHDMw.uPPX2.III",
"I.P&1p1#>4:g.uPPoPa.II",
"I.PPLJFACBmd.1pPOaP2.I",
"I.P%t<$03-=p.uPPOOoX.I",
"I.PGSZBMbczr.+1aPp51.I",
"I.P,#03-@3*w.uPPPPPp.I",
"I.PVNnvxljh8.51&151k.I",
"I.gfsiyeq976.uPPPPPk.I",
"I..........  1&p511k.I",
"IIIIIIIII.uuuuPPPPPk.I",
"IIIIIIIII.P1&p51&51k.I",
"IIIIIIIII.PPPPPPPPPk.I",
"IIIIIIIII.kkkkkkkkkk.I",
"IIIIIIIII............I",
"IIIIIIIIIIIIIIIIIIIIII"
};
