/* XPM */
static char *eraser[] = {
/* columns rows colors chars-per-pixel */
"22 22 9 1",
"  c black",
". c #0EA60EA60EA6",
"X c #266C266C266C",
"o c #39A239A239A2",
"O c #8F098F098F09",
"+ c #C7F6C7F6C7F6",
"@ c #D3A9D3A9D3A9",
"# c gray100",
"$ c None",
/* pixels */
"$$$$$$$$$$$$$$$$+. $$$",
"$$$$$$$$$$$$$$$+OO. $$",
"$$$$$$$$$$$$$$+OOOO. $",
"$$$$$$$$$$$$$+OOOOOO. ",
"$$$$$$$$$$$$+OOOOOOOO.",
"$$$$$$$$$$$+OOOOOOOOO.",
"$$$$$$$$$$+OOOOOOOOO. ",
"$$$$$$$$$+OOOOOOOOO. $",
"$$$$$$$$+OOOOOOOOO. $$",
"$$$$$$$@##OOOOOOO. $$$",
"$$$$$$@oo##OOOOO. $$$$",
"$$$$$@oooo##OOO. $$$$$",
"$$$$@oooooo##O. $$$$$$",
"$$$@oooooooo#. $$$$$$$",
"$$@oooooooooX $$$$$$$$",
"$@oooooooooX $$$$$$$$$",
"@@@oooooooX $$$$$$$$$$",
"@@@@oooooX $$$$$$$$$$$",
"$@@@@oooX $$$$$$$$$$$$",
"$$@@@@oX $$$$$$$$$$$$$",
"$$$@@@X $$$$$$$$$$$$$$",
"$$$$@X $$$$$$$$$$$$$$$"
};
