/* XPM */
static char *run[] = {
/* columns rows colors chars-per-pixel */
"22 22 79 1",
"  c #023D023D023D",
". c #040404040404",
"X c #074207420742",
"o c #090909090909",
"O c #104B104B104B",
"+ c #195419541954",
"@ c #1C391C391C39",
"# c #225D225D225D",
"$ c #2B482B482B48",
"% c #393939393939",
"& c #593C593C593C",
"* c #5B785B785B78",
"= c #658265826582",
"- c #688568856885",
"; c #747474747474",
": c #7C7C7C7C7C7C",
"> c #84BF84BF84BF",
", c #856885688568",
"< c #87A487A487A4",
"1 c #894E894E894E",
"2 c #8CC78CC78CC7",
"3 c #8E7D8E7D8E7D",
"4 c #92AF92AF92AF",
"5 c #965B965B965B",
"6 c #9A9A9A9A9A9A",
"7 c #9CD79CD79CD7",
"8 c #9F829F829F82",
"9 c #A4C1A4C1A4C1",
"0 c #A78AA78AA78A",
"q c #A98CA98CA98C",
"w c #ABE6ABE6ABE6",
"e c #ACC9ACC9ACC9",
"r c #AD90AD90AD90",
"t c #AE73AE73AE73",
"y c #AF74AF74AF74",
"u c gray69",
"i c #B1BBB1BBB1BB",
"p c #B378B378B378",
"a c #B4C7B4C7B4C7",
"s c #B57AB57AB57A",
"d c #B67BB67BB67B",
"f c #B79AB79AB79A",
"g c #B89BB89BB89B",
"h c gray73",
"j c #BB9EBB9EBB9E",
"k c #BCBCBCBCBCBC",
"l c gray74",
"z c #BE83BE83BE83",
"x c #BFB1BFB1BFB1",
"c c #C1CBC1CBC1CB",
"v c #C3E0C3E0C3E0",
"b c gray77",
"n c #C5A8C5A8C5A8",
"m c #C695C695C695",
"M c #C7AAC7AAC7AA",
"N c #CAD9CAD9CAD9",
"B c #CBDACBDACBDA",
"V c #CCDFCCDFCCDF",
"C c gray81",
"Z c #D0B3D0B3D0B3",
"A c #D1C2D1C2D1C2",
"S c #D2B5D2B5D2B5",
"D c #D3E2D3E2D3E2",
"F c #D5C2D5C2D5C2",
"G c #D7CDD7CDD7CD",
"H c #D8D8D8D8D8D8",
"J c #D9BCD9BCD9BC",
"K c #DABDDABDDABD",
"L c #DBBEDBBEDBBE",
"P c #DDC0DDC0DDC0",
"I c #DEA3DEA3DEA3",
"U c #DFDFDFDFDFDF",
"Y c #E1C4E1C4E1C4",
"T c #E4E4E4E4E4E4",
"R c #E8ADE8ADE8AD",
"E c #E9AEE9AEE9AE",
"W c #F0BFF0BFF0BF",
"Q c #F2B7F2B7F2B7",
"! c None",
/* pixels */
"!!!!!!!!!!!!!!!!!!!!!!",
"!!!!!!!!!!  !!!!!!!!!!",
"!!!!!!!!! WB !!!!!!!!!",
"!!!!  !!! Qu !!!  !!!!",
"!!! IQ !  W3  ! Tm !!!",
"!!! QIE QQKJYn Tm, !!!",
"!!!! RUIYLFDACFV* !!!!",
"!!!!! IPHGDAVNMk !!!!!",
"!!!! QUKG5==iMbl1 !!!!",
"!!   QLG5%.X3Ncl9   !!",
"! WQQKFD=.!!oTlhi8yi !",
"! Ni3JDZ=X!!OQkgr2:; !",
"!!   YAVy3oOQKfa2   !!",
"!!!! nABmNTQJdse& !!!!",
"!!!!! SMvczkfai6 !!!!!",
"!!!! TMcxxjgaw7i4 !!!!",
"!!! Tm* 19pt2& 60: !!!",
"!!! m, !  -3+ ! :; !!!",
"!!!!  !!!#q> !!!  !!!!",
"!!!!!!!!!$m< !!!!!!!!!",
"!!!!!!!!!! @!!!!!!!!!!",
"!!!!!!!!!!!!!!!!!!!!!!"
};
