/* XPM */
static char *stock_stop[] = {
/* columns rows colors chars-per-pixel */
"16 16 33 1",
"  c #232323",
". c #282828",
"X c gray16",
"o c #2A2A2A",
"O c gray17",
"+ c #2C2C2C",
"@ c #2D2D2D",
"# c gray18",
"$ c #2F2F2F",
"% c #323232",
"& c #343434",
"* c #353535",
"= c #373737",
"- c #3A3A3A",
"; c gray23",
": c gray24",
"> c #3E3E3E",
", c #3F3F3F",
"< c gray25",
"1 c #414141",
"2 c gray26",
"3 c #434343",
"4 c #444444",
"5 c gray27",
"6 c #464646",
"7 c gray28",
"8 c #494949",
"9 c #4B4B4B",
"0 c #4C4C4C",
"q c gray30",
"w c #4E4E4E",
"e c gray100",
"r c None",
/* pixels */
"rrrrrrrrrrrrrrrr",
"rrrrr      rrrrr",
"rrrr 5qqq92 rrrr",
"rrr@q-@oo@=9@rrr",
"rr q%oooooo@5 rr",
"r 2-oeeooeeo=: r",
"r q@oeeeeeeoo5 r",
"r qoooeeeeo o2 r",
"r qoooeeeeoo 2 r",
"r 9ooeeeeee o2 r",
"r 2=oeeo eeo%- r",
"rr 9@ o oooo2 rr",
"rrr@5= ooo%:orrr",
"rrrr :5222- rrrr",
"rrrrr      rrrrr",
"rrrrrrrrrrrrrrrr"
};
