/* XPM */
static char *stock_up[] = {
/* columns rows colors chars-per-pixel */
"16 16 39 1",
"  c gray27",
". c #464646",
"X c gray28",
"o c #484848",
"O c #4B4B4B",
"+ c #4E4E4E",
"@ c gray32",
"# c #585858",
"$ c #5F5F5F",
"% c #606060",
"& c #656565",
"* c DimGray",
"= c #6A6A6A",
"- c gray42",
"; c #6D6D6D",
": c gray43",
"> c #6F6F6F",
", c gray44",
"< c gray45",
"1 c #747474",
"2 c gray46",
"3 c #767676",
"4 c #777777",
"5 c #797979",
"6 c #7B7B7B",
"7 c #7C7C7C",
"8 c gray49",
"9 c #7E7E7E",
"0 c #808080",
"q c #818181",
"w c #838383",
"e c gray52",
"r c #868686",
"t c #888888",
"y c #898989",
"u c gray54",
"i c #8B8B8B",
"p c #909090",
"a c None",
/* pixels */
"aaaaaaaaaaaaaaaa",
"aaaaaaa.aaaaaaaa",
"aaaaaa.:oaaaaaaa",
"aaaaa.<p8.aaaaaa",
"aaaa.=u:03.aaaaa",
"aaa.%u3=%8<.aaaa",
"aa.#u3<=$%8:.aaa",
"aa@ru6<=$:8r&.aa",
"a...or<=$8+....a",
"aaaa.0<=$6.aaaaa",
"aaaa.0<=$3.aaaaa",
"aaaa.8<=$<.aaaaa",
"aaaa 6<=$:.aaaaa",
"aaaa 66<::.aaaaa",
"aaaa..... .aaaaa",
"aaaaaaaaaaaaaaaa"
};
