/* XPM */
static char * gray_belly4_xpm[] = {
"17 16 21 1",
" 	c None",
".	c #9E9E9C",
"+	c #605F60",
"@	c #1C1C1C",
"#	c #A8A8A8",
"$	c #C9C9C9",
"%	c #D7D7D7",
"&	c #CECECE",
"*	c #505050",
"=	c #6C6D6D",
"-	c #797A7A",
";	c #EAEAEA",
">	c #FDFDFD",
",	c #404040",
"'	c #BEBEBE",
")	c #4A4A4A",
"!	c #919292",
"~	c #B4B4B4",
"{	c #E0E0E0",
"]	c #F4F4F4",
"^	c #8A8A8A",
"     .+@@@+#     ",
"      .$%&.*=    ",
"   -+#%;>;%#+-   ",
"  .,-'%%%%%'=)!  ",
"  )=#.~'~''##=*  ",
"  )!#~''$'~~#!*  ",
"  +~#$&%%%&&~#+  ",
"  +'$%%;;;{%&$+  ",
"  ='&;;]]];;%'=  ",
"  -#{;>>>>>;;#-  ",
"  ^^$]>>>]>>$^!  ",
"  .=!%>>>>>;!=.  ",
"   -*-#&;%.=+-   ",
"    ^+*,),)+^    ",
"      !---!      ",
"                 "};
