/* XPM */
static char *magick[] = {
/* columns rows colors chars-per-pixel */
"22 22 4 1",
" 	c None",
".	c #000000000000",
"X	c #820782078207",
"o	c #FFFFFFFFFFFF",
/* pixels */
"                      ",
"                      ",
"  XXXXXXXXXXXXXXXXXX  ",
"  XXXXXXXXXXXXXXXXX.  ",
"  XXooooooooooooooX.  ",
"  XXooooooooooooooX.  ",
"  XXooooooooooooooX.  ",
"  XXooooooooooooooX.  ",
"  XXooooooooooooooX.  ",
"  Xoooooooooooooooo.  ",
"  XXXXXXXXXXXXXXXXX.  ",
"  XXXXXXXXXXXXXXXXX.  ",
"  XXXXXXXXXXXXXXXXX.  ",
"  X%ooooooooooooooX.  ",
"  X%ooooooooooooooX.  ",
"  X%ooooooooooooooX.  ",
"  XXooooooooooooooX.  ",
"  XXooooooooooooooX.  ",
"  XXXXXXXXXXXXXXXXX.  ",
"  X.................  ",
"                      ",
"                      "
}
