/* XPM */
static char *apply[] = {
/* columns rows colors chars-per-pixel */
"16 16 39 1",
"  c gray29",
". c #4E4E4E4E4E4E",
"X c gray33",
"o c #555555555555",
"O c #565656565656",
"+ c #5A5A5A5A5A5A",
"@ c #5B5B5B5B5B5B",
"# c #5D5D5D5D5D5D",
"$ c #5F5F5F5F5F5F",
"% c #606060606060",
"& c #646464646464",
"* c #656565656565",
"= c #676767676767",
"- c #686868686868",
"; c #6A6A6A6A6A6A",
": c gray42",
"> c #6C6C6C6C6C6C",
", c #6D6D6D6D6D6D",
"< c gray44",
"1 c #747474747474",
"2 c gray46",
"3 c #767676767676",
"4 c #797979797979",
"5 c #7B7B7B7B7B7B",
"6 c #7C7C7C7C7C7C",
"7 c gray49",
"8 c #808080808080",
"9 c #838383838383",
"0 c #848484848484",
"q c gray52",
"w c gray53",
"e c #888888888888",
"r c #898989898989",
"t c #8D8D8D8D8D8D",
"y c gray56",
"u c gray57",
"i c #929292929292",
"p c gray59",
"a c None",
/* pixels */
"aaaaaaaaaaaaaaaa",
"aaaaaaaaaaaaaaaa",
"aaaaaaaaaaaaaa>,",
"=aaaaaaaaaaaa--a",
"=;aaaaaaaaa36&aa",
"a0<aaaaaa:te&aaa",
"a4i*aaa&7p8#aaaa",
"a&ue%#3tp2Oaaaaa",
"ao8u0qyt;Xaaaaaa",
"aa,ewr9&aaaaaaaa",
"aa+895@aaaaaaaaa",
"aa.31oaaaaaaaaaa",
"aaa$oaaaaaaaaaaa",
"aaa aaaaaaaaaaaa",
"aaaaaaaaaaaaaaaa",
"aaaaaaaaaaaaaaaa"
};
