<?xml version="1.0" encoding="UTF-8" standalone="no"?>
<!-- Created with Inkscape (http://www.inkscape.org/) -->
<svg
   xmlns:dc="http://purl.org/dc/elements/1.1/"
   xmlns:cc="http://creativecommons.org/ns#"
   xmlns:rdf="http://www.w3.org/1999/02/22-rdf-syntax-ns#"
   xmlns:svg="http://www.w3.org/2000/svg"
   xmlns="http://www.w3.org/2000/svg"
   xmlns:sodipodi="http://sodipodi.sourceforge.net/DTD/sodipodi-0.dtd"
   xmlns:inkscape="http://www.inkscape.org/namespaces/inkscape"
   width="32px"
   height="32px"
   id="svg3302"
   sodipodi:version="0.32"
   inkscape:version="0.46"
   sodipodi:docname="delete_node.svg"
   inkscape:output_extension="org.inkscape.output.svg.inkscape"
   inkscape:export-filename="/home/pajas/projects/med-devel/icons/delete_subtree.png"
   inkscape:export-xdpi="90"
   inkscape:export-ydpi="90">
  <defs
     id="defs3304">
    <marker
       inkscape:stockid="TriangleInM"
       orient="auto"
       refY="0.0"
       refX="0.0"
       id="TriangleInM"
       style="overflow:visible">
      <path
         id="path7807"
         d="M 5.77,0.0 L -2.88,5.0 L -2.88,-5.0 L 5.77,0.0 z "
         style="fill-rule:evenodd;stroke:#000000;stroke-width:1.0pt;marker-start:none"
         transform="scale(-0.4)" />
    </marker>
    <marker
       inkscape:stockid="TriangleInS"
       orient="auto"
       refY="0.0"
       refX="0.0"
       id="TriangleInS"
       style="overflow:visible">
      <path
         id="path7810"
         d="M 5.77,0.0 L -2.88,5.0 L -2.88,-5.0 L 5.77,0.0 z "
         style="fill-rule:evenodd;stroke:#000000;stroke-width:1.0pt;marker-start:none"
         transform="scale(-0.2)" />
    </marker>
    <marker
       inkscape:stockid="Arrow2Lstart"
       orient="auto"
       refY="0.0"
       refX="0.0"
       id="Arrow2Lstart"
       style="overflow:visible">
      <path
         id="path7688"
         style="font-size:12.0;fill-rule:evenodd;stroke-width:0.62500000;stroke-linejoin:round"
         d="M 8.7185878,4.0337352 L -2.2072895,0.016013256 L 8.7185884,-4.0017078 C 6.9730900,-1.6296469 6.9831476,1.6157441 8.7185878,4.0337352 z "
         transform="scale(1.1) translate(1,0)" />
    </marker>
    <marker
       inkscape:stockid="Arrow2Sstart"
       orient="auto"
       refY="0.0"
       refX="0.0"
       id="Arrow2Sstart"
       style="overflow:visible">
      <path
         id="path7700"
         style="font-size:12.0;fill-rule:evenodd;stroke-width:0.62500000;stroke-linejoin:round"
         d="M 8.7185878,4.0337352 L -2.2072895,0.016013256 L 8.7185884,-4.0017078 C 6.9730900,-1.6296469 6.9831476,1.6157441 8.7185878,4.0337352 z "
         transform="scale(0.3) translate(-2.3,0)" />
    </marker>
    <marker
       inkscape:stockid="Arrow1Lstart"
       orient="auto"
       refY="0.0"
       refX="0.0"
       id="Arrow1Lstart"
       style="overflow:visible">
      <path
         id="path7670"
         d="M 0.0,0.0 L 5.0,-5.0 L -12.5,0.0 L 5.0,5.0 L 0.0,0.0 z "
         style="fill-rule:evenodd;stroke:#000000;stroke-width:1.0pt;marker-start:none"
         transform="scale(0.8) translate(12.5,0)" />
    </marker>
    <inkscape:perspective
       sodipodi:type="inkscape:persp3d"
       inkscape:vp_x="0 : 16 : 1"
       inkscape:vp_y="0 : 1000 : 0"
       inkscape:vp_z="32 : 16 : 1"
       inkscape:persp3d-origin="16 : 10.666667 : 1"
       id="perspective3310" />
  </defs>
  <sodipodi:namedview
     id="base"
     pagecolor="#ffffff"
     bordercolor="#666666"
     borderopacity="1.0"
     inkscape:pageopacity="0.0"
     inkscape:pageshadow="2"
     inkscape:zoom="4"
     inkscape:cx="29.945333"
     inkscape:cy="-7.7013602"
     inkscape:current-layer="layer1"
     showgrid="true"
     inkscape:grid-bbox="true"
     inkscape:document-units="px"
     inkscape:window-width="1061"
     inkscape:window-height="959"
     inkscape:window-x="433"
     inkscape:window-y="235"
     showguides="true"
     inkscape:guide-bbox="true" />
  <metadata
     id="metadata3307">
    <rdf:RDF>
      <cc:Work
         rdf:about="">
        <dc:format>image/svg+xml</dc:format>
        <dc:type
           rdf:resource="http://purl.org/dc/dcmitype/StillImage" />
      </cc:Work>
    </rdf:RDF>
  </metadata>
  <g
     id="layer1"
     inkscape:label="Layer 1"
     inkscape:groupmode="layer">
    <path
       style="opacity:1;fill:#000000;fill-opacity:0.75;fill-rule:evenodd;stroke:#000000;stroke-width:2.14099503;stroke-linecap:butt;stroke-linejoin:miter;stroke-miterlimit:4;stroke-dasharray:none;stroke-opacity:1"
       d="M 5.5804378,4.7791224 L 24.925411,26.176687"
       id="path3178"
       sodipodi:nodetypes="cc" />
    <path
       sodipodi:type="arc"
       style="opacity:1;fill:#000000;fill-opacity:1;fill-rule:evenodd;stroke:#000000;stroke-width:1;stroke-linecap:butt;stroke-linejoin:round;stroke-miterlimit:4;stroke-dasharray:none;stroke-dashoffset:0;stroke-opacity:1"
       id="path42624"
       sodipodi:cx="124.28571"
       sodipodi:cy="239.50504"
       sodipodi:rx="30"
       sodipodi:ry="30"
       d="M 154.28571,239.50504 A 30,30 0 1 1 94.285713,239.50504 A 30,30 0 1 1 154.28571,239.50504 z"
       transform="matrix(0.1120397,0,0,0.1120397,-8.4448569,-22.23446)" />
    <path
       sodipodi:type="arc"
       style="opacity:1;fill:#ffff00;fill-opacity:1;fill-rule:evenodd;stroke:#ff6600;stroke-width:7.85886478;stroke-linecap:butt;stroke-linejoin:round;stroke-miterlimit:4;stroke-dasharray:none;stroke-dashoffset:0;stroke-opacity:1"
       id="path2384"
       sodipodi:cx="124.28571"
       sodipodi:cy="239.50504"
       sodipodi:rx="30"
       sodipodi:ry="30"
       d="M 154.28571,239.50504 A 30,30 0 1 1 94.285713,239.50504 A 30,30 0 1 1 154.28571,239.50504 z"
       transform="matrix(0.1342861,0,0,0.1342861,8.3240549,-6.4377774)" />
    <path
       id="rect2129"
       d="M 10.789138,13.096622 C 10.453445,13.298615 10.170207,13.63362 10.018565,14.042714 C 9.7152786,14.860901 10.05599,15.676368 10.78161,15.875447 L 15.399862,17.142502 L 13.735384,21.632848 C 13.473861,22.338371 13.940391,23.09635 14.781885,23.32722 C 15.623378,23.558091 16.513838,23.172413 16.77536,22.466891 L 18.439838,17.976546 L 23.058091,19.243601 C 23.78371,19.442681 24.616365,18.944332 24.91965,18.126145 C 25.222936,17.307958 24.879357,16.486899 24.153737,16.28782 L 19.535483,15.020764 L 21.199962,10.53042 C 21.461485,9.8248973 20.997824,9.0725092 20.156331,8.8416382 C 19.314837,8.6107672 18.42151,8.9908562 18.159987,9.6963782 L 16.495508,14.186723 L 11.877256,12.919668 C 11.514447,12.820128 11.124832,12.89463 10.789138,13.096622 z"
       style="fill:#ff0000;fill-opacity:1;stroke:#800000;stroke-width:1.28935742;stroke-linecap:round;stroke-linejoin:miter;stroke-miterlimit:4;stroke-opacity:1"
       inkscape:transform-center-x="-4.5"
       inkscape:transform-center-y="2.25" />
  </g>
</svg>
