/* XPM */
static char *stock_down[] = {
/* columns rows colors chars-per-pixel */
"16 16 44 1",
"  c gray27",
". c #464646",
"X c #484848",
"o c #494949",
"O c gray29",
"+ c #4E4E4E",
"@ c gray32",
"# c #565656",
"$ c #585858",
"% c gray35",
"& c #5D5D5D",
"* c #5F5F5F",
"= c #606060",
"- c #646464",
"; c #656565",
": c gray40",
"> c DimGray",
", c #6A6A6A",
"< c gray42",
"1 c #6D6D6D",
"2 c gray43",
"3 c #727272",
"4 c gray45",
"5 c #747474",
"6 c gray46",
"7 c #7B7B7B",
"8 c gray49",
"9 c #7E7E7E",
"0 c gray50",
"q c #808080",
"w c #818181",
"e c #838383",
"r c #848484",
"t c gray53",
"y c #888888",
"u c gray54",
"i c #8B8B8B",
"p c gray55",
"a c gray56",
"s c gray57",
"d c gray58",
"f c gray59",
"g c #979797",
"h c None",
/* pixels */
"hhhhhhhhhhhhhhhh",
"hhhh       hhhhh",
"hhhh fffffXhhhhh",
"hhhh s5,*aXhhhhh",
"hhhh a5,*aXhhhhh",
"hhhh a5,*uXhhhhh",
"hhhh u5,*e hhhhh",
"h   Xt4,*0@    h",
"h @et05,*100: hh",
"hh #e54,**5: hhh",
"hhh %05,*4: hhhh",
"hhhh *711: hhhhh",
"hhhhh =5: hhhhhh",
"hhhhhh % hhhhhhh",
"hhhhhhh hhhhhhhh",
"hhhhhhhhhhhhhhhh"
};
