/* XPM */
static char* SS_Help[]={
"20 20 7 1",
"b c #c5b46e",
"a c #000000",
"e c #383c38",
". c None",
"d c #84784a",
"# c #585858",
"c c #fce988",
"....................",
"..################..",
".##aaaaaaaaaaaaaa##.",
".#aabbbbbbbbbbbbaa#.",
".#abbcccdeedbccbba#.",
".#abcccdeceaecccba#.",
".#abcccaacbaabccba#.",
".#abcccbdcbaacccba#.",
".#abccccccdadcccba#.",
".#abccccccadccccba#.",
".#abcccccbdcccccba#.",
".#abcccccbccccccba#.",
".#abccccccccccccba#.",
".#abcccccaecccccba#.",
".#abccccbaecccccba#.",
".#abbccccbcccccbba#.",
".#abbbbbbbbbbbbbaa#.",
".#aaaaaaaaaaaaaaa##.",
"..################..",
"...................."};
