/* XPM */
static char* SS_Inform[]={
"20 20 7 1",
"b c #a0a0a0",
". c None",
"e c #c3c3c3",
"a c #303030",
"# c #585858",
"d c #808080",
"c c #dcdcdc",
".......#####........",
".....##aaaaa##......",
"...##aabbbbbaa##....",
"..#aabcbbbbcbbaa#...",
"..#abccbaaacccba#...",
".#abcccbaaaccccba#..",
".#abcccbaaaccccba#..",
"#abbcccccccccccbba#.",
"#abccccddddcccceba#.",
"#abccccdaaacccceba#.",
"#abccccdaaacccceba#.",
"#abbcccdaaaccccbba#.",
".#abcccdaaaccceba#..",
".#abbccdaaaceceba#..",
"..#abccdaaaceeea#...",
"..#aabeecceeebaa#...",
"...##aabbbbbaa##....",
".....##aaaaa##......",
".......#####........",
"...................."};
