/* XPM */
static char*SS_Save[]={
"20 20 8 1",
"a c #000000",
"e c #4b7b82",
"b c #6b6b6b",
". c None",
"c c #7b7b7b",
"d c #ababab",
"# c #585858",
"  c #ffffff",
"....................",
".......#####........",
".....##aaaaa##......",
"....#aabccccaa#.....",
"...#abccdddcbba#....",
"..#abcdddccccbba#...",
"..#acdd    cccba#...",
".#accd  ccc ccbba#..",
".#acddc  cccccbba#..",
".#acdccc  cccccba#..",
".#acdcccc  cccb#a#..",
".#accc ccc  ccb#a#..",
"..#accc    ccbba#...",
"..#accccccccbb#a#...",
"...#accccbbbb#a#....",
"....#aabbbb#aa#.....",
".....##aaaaa##......",
".......#####........",
"....................",
"...................."};
