/* XPM */
static char*SS_Save[]={
"20 20 7 1",
"a c #000000",
"e c #4b7b82",
"b c #9b0036",
". c None",
"c c #df0049",
"d c #ff698e",
"# c #585858",
"....................",
".......#####........",
".....##aaaaa##......",
"....#aabccccaa#.....",
"...#abccdddcbba#....",
"..#abcdddccccbba#...",
"..#acddcccccccba#...",
".#accdccccccccbba#..",
".#acddccccccccbba#..",
".#acdccccccccccba#..",
".#acdcccccccccb#a#..",
".#acccccccccccb#a#..",
"..#acccccccccbba#...",
"..#accccccccbb#a#...",
"...#accccbbbb#a#....",
"....#aabbbb#aa#.....",
".....##aaaaa##......",
".......#####........",
"....................",
"...................."};
