/* XPM */
static char*SS_Error[]={
"20 20 7 1",
"e c #ffffff",
"a c #000000",
"b c #9b0036",
". c None",
"c c #df0049",
"d c #ff698e",
"# c #585858",
"....................",
".......#####........",
".....##aaaaa##......",
"....#aabccccaa#.....",
"...#abccdddcbba#....",
"..#abcdddccccbba#...",
"..#acddcccccccba#...",
".#accdeecceeccbba#..",
".#acddceeeecccbba#..",
".#acdccceecccccba#..",
".#acdcceeeecccbba#..",
".#accceecceeccbba#..",
"..#acccccccccbba#...",
"..#accccccccbbba#...",
"...#accccbbbbba#....",
"....#aabbbbbaa#.....",
".....##aaaaa##......",
".......#####........",
"....................",
"...................."};
