/* XPM */
static char* Xpmtred[] = {
"32 32 7 1",
"  c #FFFFFF",
"! c #000000",
"# c #314747",
"$ c #F5DEB3",
"% c #EE82EE",
"& c #FF6347",
"' c #BEBEBE",
"                                ",
"             !                  ",
"            !!          !       ",
"           !!!         !!       ",
"           !!!        !!!       ",
"          !#!!       !!!        ",
"          !!!! ! !  !!!!        ",
"          !!!!!! ! !!!!!        ",
"          !!!!!!!!!!!!!!        ",
"          !!!!!!!!!!!!!         ",
"       !!!!!!!!!!!#!!!!         ",
"      !!!!!#!!!!!!!!!!!         ",
"      !!!#!!!!#!!!!!!!!      !  ",
"      !$$!!!!!!!!!!!!!!     !!  ",
"     !$$$$!!!!$$$$!!!!!    !!!  ",
"     !$!$$$!!$$$$$$!!!!  !!!!   ",
"     !$!$$$!!$$!$$$!!!!!!!!!    ",
"      !$!!!!!$$!$$$!!!!!!!#! !! ",
"       !%%%%%!$$$$!!!!!!!!!!!!  ",
"     !!!%%%%%!!!!!#!!!!!!!!!!   ",
"    !!!!%%%%%!!!!#!!!!!!!!!!  ! ",
"    !!!!!%%!!!!!!!!!!!!!!!!!!!  ",
"    !!!#!!!!!!!!!!!!!!!!!!!!!   ",
"    !!!!#!!!!!!#!!!!!!!!!!!     ",
"    !!!!!!!!!!!!!!!!#!!!!!!!!   ",
"    !!!! !&!!!!  !!!!!!!!!!!!!!!",
"    ! ! !&!&&&!  !!!!!!!#!!!!!!!",
"    ! ! !&!&&&!! !!!!!!!!!!!!!!!",
"     !! !&&&!!!!!!!!!!!!!!!!!#!!",
"         !!!  !!''''!!!!!!!!!!!!",
"              !'''''''!!#!!!!!!!",
"             !!!!!!!!!!!!!!!!!!!"};