/* XPM */
static char * gray_belly2_xpm[] = {
"17 16 21 1",
" 	c None",
".	c #1C1C1C",
"+	c #797A7A",
"@	c #A8A8A8",
"#	c #BEBEBE",
"$	c #CECECE",
"%	c #E0E0E0",
"&	c #404040",
"*	c #FDFDFD",
"=	c #4A4A4A",
"-	c #919292",
";	c #EAEAEA",
">	c #505050",
",	c #F4F4F4",
"'	c #605F60",
")	c #B4B4B4",
"!	c #8A8A8A",
"~	c #C9C9C9",
"{	c #6C6D6D",
"]	c #D7D7D7",
"^	c #9E9E9C",
"     ^'...'@     ",
"    ''^~]$^>{    ",
"   +'@];*;]@'+   ",
"  ^&+#]]]]]#{=-  ",
"  ={@^)#)##@@{>  ",
"  =-@)##~#))@->  ",
"  ')@~$]]]$$)@'  ",
"  '#~]];;;%]$~'  ",
"  {#$;;,,,;;]#{  ",
"  +@%;*****;;@+  ",
"  !!~,***,**~!-  ",
"  ^{-]*****;-{   ",
"   +>+@$;]^{'+   ",
"    !'>&=&='!    ",
"     ^-+++-@     ",
"                 "};
