/* XPM */
static char * left_xpm[] = {
"22 22 4 1",
" 	c None",
".	c #444444444444",
"X	c #777777777777",
"o	c #820782078207",
"                      ",
"                      ",
"                      ",
"                      ",
"                      ",
"          .           ",
"         ..           ",
"        .X.           ",
"       .XX........    ",
"      .XX XXXXXXX.    ",
"     .XX         .    ",
"      .X         .    ",
"      o.X ........    ",
"       o.X.ooooooo    ",
"        o..o          ",
"         o.o          ",
"          oo          ",
"           o          ",
"                      ",
"                      ",
"                      ",
"                      "};
