/* XPM */
static char *magick[] = {
/* columns rows colors chars-per-pixel */
"22 22 4 1",
" 	c None",
".	c #000000000000",
"X	c #820782078207",
"o	c #FFFFFFFFFFFF",
/* pixels */
"                      ",
"                      ",
"  XXXXXXXXXXXXXXXXXX  ",
"  XXXXXXXXXXXXXXXXX.  ",
"  XXooooooooooooooX.  ",
"  XXooooooooooooooX.  ",
"  XXooooooooooooooX.  ",
"  XXooooooooooooooX.  ",
"  XXooooooooooooooX.  ",
"  XXooooooooooooooX.  ",
"  XXooooooooooooooX   ",
"  XXooooX..ooooooX..  ",
"  XXoooooX..ooooX..   ",
"  XXooooooX..ooX..X.  ",
"  XXoooooooX..X..oX.  ",
"  XXooooooooX...ooX.  ",
"  XXooooooooX...ooX.  ",
"  XXoooooooX..X..oX.  ",
"  XXXXXXXXX..XXX..X.  ",
"  X......X.. ...X..   ",
"         ..      X..  ",
"                      "
}
