/* XPM */
static char*tred[]={
"32 32 8 1",
"e c #ffa858",
"c c #a0a0a0",
". c None",
"# c #000000",
"b c #ffff00",
"d c #ffffc0",
"a c #00c000",
"f c #ff0000",
"..........................#a#...",
"...###....................aaa...",
"..#bbb#..................#aaa#..",
".#bbbbb#.................#aaa#..",
".#bbbbb#.................#aaa#..",
".#bbbbb#.................aaaaa..",
"..#bbb#c................#aaaaa#.",
"...#####c...............#aaaaa#.",
".dddddd##..........ddd..#aaaaa#.",
".dddddd#ddd...ddd..dddd#aaaeaaa#",
"...dd##ddddd.dd#dd.d##d#aaaeaaa#",
"...dd#.dd#dd#ddddd#d#.d####e####",
"...dd#.dd#.##dd####dddd#..#e#...",
"...dd#.dd#....dddd.ddd##..#e#...",
"....##..##.....####.###...#.#...",
"..............fffff.............",
"..............fffff.............",
"..............fffff.............",
".............##fff#c............",
"............##c...##c...........",
"...........##c.....##c..........",
"..........##c.......##c.........",
".........##c.........##c........",
"........##c...........##c.......",
".......##c.............##c......",
"...#####c...............##c###..",
"..#bbb#c.................##bbb#.",
".#bbbbb#.................#bbbbb#",
".#bbbbb#.................#bbbbb#",
".#bbbbb#.................#bbbbb#",
"..#bbb#...................#bbb#.",
"...###.....................###.."};
