/* XPM */
static char *magick[] = {
/* columns rows colors chars-per-pixel */
"22 22 4 1",
" 	c None",
".	c #000000000000",
"X	c #820782078207",
"o	c #FFFFFFFFFFFF",
/* pixels */
"                      ",
"                      ",
"  XXXXXXXXXXXXXXXXXX  ",
"  XXXXXXXoXXXXXXXXX.  ",
"  XXooooooXXooooooX.  ",
"  XXooooooXXooooooX.  ",
"  XXooooooXXooooooX.  ",
"  XXooooooXXooooooX.  ",
"  XXooooooXXooooooX.  ",
"  XXooooooXXooooooX.  ",
"  XXooooooXXooooooX.  ",
"  XXooooooXXooooooX.  ",
"  XXooooooXXooooooX.  ",
"  XXooooooXXooooooX.  ",
"  XXooooooXXooooooX.  ",
"  XXooooooXXooooooX.  ",
"  XXooooooXXooooooX.  ",
"  XXooooooXXooooooX.  ",
"  XXXXXXXoXXXXXXXXX.  ",
"  X.................  ",
"                      ",
"                      "
};
